<?xml version="1.0" standalone="no"?>
<!DOCTYPE svg PUBLIC "-//W3C//DTD SVG 1.1//EN" "http://www.w3.org/Graphics/SVG/1.1/DTD/svg11.dtd" >
<svg xmlns="http://www.w3.org/2000/svg">
<metadata></metadata>
<defs>
<font id="houschka_roundedlight" horiz-adv-x="1228" >
<font-face units-per-em="2048" ascent="1556" descent="-492" />
<missing-glyph horiz-adv-x="514" />
<glyph horiz-adv-x="0" />
<glyph horiz-adv-x="682" />
<glyph unicode=" "  horiz-adv-x="514" />
<glyph unicode="&#x09;" horiz-adv-x="514" />
<glyph unicode="&#xa0;" horiz-adv-x="514" />
<glyph unicode="!" horiz-adv-x="417" d="M145 1270q0 143 64 143q65 0 65 -143q0 -34 -3.5 -110.5t-4.5 -92.5l-24 -680q-3 -45 -33 -45q-28 0 -31 45l-24 680q-1 20 -5 94.5t-4 108.5zM150 43q0 25 16.5 41t42.5 16t42.5 -16t16.5 -41q0 -26 -16.5 -43.5t-42.5 -17.5t-42.5 17.5t-16.5 43.5z" />
<glyph unicode="&#x22;" horiz-adv-x="501" d="M84 1358q0 57 45 57q47 0 47 -57q0 -33 -2 -78l-12 -244q-3 -37 -33 -37q-28 0 -31 37l-12 244q-2 45 -2 78zM326 1358q0 57 45 57q47 0 47 -57q0 -33 -2 -78l-13 -244q-2 -20 -8.5 -28.5t-23.5 -8.5q-28 0 -31 37l-12 244q-2 45 -2 78z" />
<glyph unicode="#" horiz-adv-x="1392" d="M0 309q0 15 11 26t26 11h325l87 416h-312q-15 0 -26 12t-11 27t11 26t26 11h328l84 401q3 15 16.5 24t28.5 5q15 -3 23.5 -16t5.5 -27l-82 -387h428l86 401q3 15 16.5 24t28.5 5q14 -3 21.5 -16t4.5 -27l-82 -387h312q15 0 26 -11t11 -26t-11 -27t-26 -12h-328l-86 -416 h313q15 0 26 -11t11 -26t-11 -26t-26 -11h-329l-86 -405q-3 -14 -15.5 -22t-27.5 -5t-23.5 15.5t-5.5 27.5l82 389h-428l-86 -405q-3 -14 -15.5 -22t-27.5 -5t-23.5 15.5t-5.5 27.5l82 389h-309q-15 0 -26 11t-11 26zM438 346h428l86 416h-428z" />
<glyph unicode="$" d="M172 143q0 20 13.5 33.5t33.5 13.5q13 0 26.5 -10t43.5 -31t71 -40q105 -50 244 -50q168 0 258 77.5t90 211.5q0 143 -155 217q-55 27 -189.5 65.5t-212.5 71.5q-102 44 -159.5 112t-57.5 173q0 154 106 240.5t304 93.5v125q0 11 8 19t20 8q10 0 18.5 -8.5t8.5 -18.5 v-125q157 -3 279 -57q22 -10 33 -16t23.5 -19.5t12.5 -28.5q0 -19 -11.5 -30t-31.5 -11q-11 0 -26.5 7t-40.5 19.5t-50 20.5q-117 37 -208 37q-175 0 -262 -65.5t-87 -190.5q0 -74 47.5 -124.5t139.5 -88.5q47 -19 193.5 -61t222.5 -84q174 -95 174 -273q0 -169 -109.5 -267 t-298.5 -107v-117q0 -12 -8 -20.5t-19 -8.5q-12 0 -20 8.5t-8 20.5v115q-114 3 -211 33t-164 75q-41 26 -41 55z" />
<glyph unicode="%" horiz-adv-x="1292" d="M51 1098q0 129 92.5 221t221.5 92q128 0 220.5 -92t92.5 -221t-92.5 -221.5t-220.5 -92.5q-129 0 -221.5 92t-92.5 222zM106 1098q0 -107 76.5 -182.5t182.5 -75.5t181 75.5t75 182.5q0 106 -75 182t-181 76t-182.5 -76t-76.5 -182zM176 12q0 12 8 23l871 1356 q15 20 30 20q12 0 21.5 -9t9.5 -22q0 -11 -8 -22l-870 -1358q-15 -20 -31 -20q-13 0 -22 9t-9 23zM614 293q0 129 92.5 221t221.5 92q128 0 220.5 -92t92.5 -221t-92.5 -221t-220.5 -92q-129 0 -221.5 91.5t-92.5 221.5zM670 293q0 -108 75 -183t183 -75q106 0 180 75.5 t74 182.5q0 106 -74.5 182t-179.5 76q-107 0 -182.5 -76t-75.5 -182z" />
<glyph unicode="&#x26;" horiz-adv-x="1308" d="M88 379q0 70 24.5 129.5t71 105.5t98 80t121.5 68q-94 183 -94 309q0 149 83 233.5t220 84.5q133 0 208 -74t75 -201q0 -55 -20.5 -103.5t-51.5 -83t-78.5 -68.5t-90 -57t-96.5 -51l-36 -18q72 -128 180.5 -258.5t221.5 -224.5q51 71 75.5 159t32.5 222q2 15 13 27t28 12 q19 0 32 -12.5t13 -32.5q0 -263 -121 -428q153 -119 265 -134q30 -5 30 -36q0 -22 -12.5 -34.5t-32.5 -12.5q-125 0 -311 147q-147 -147 -379 -147q-136 0 -240 43.5t-166.5 135t-62.5 220.5zM178 377q0 -159 105.5 -242.5t279.5 -83.5q185 0 305 127q-120 102 -233.5 239 t-194.5 275q-126 -65 -194 -137.5t-68 -177.5zM397 1071q0 -106 86 -268q9 5 49 24.5t56 27.5t52 29t53.5 35.5t44 39t39 46.5t22.5 51t10 60q0 95 -52.5 148t-146.5 53t-153.5 -66.5t-59.5 -179.5z" />
<glyph unicode="'" horiz-adv-x="260" d="M84 1358q0 57 45 57q47 0 47 -57q0 -33 -2 -78l-12 -244q-3 -37 -33 -37q-28 0 -31 37l-12 244q-2 45 -2 78z" />
<glyph unicode="(" horiz-adv-x="483" d="M106 479q0 249 58 487t186 431q16 22 39 22q20 0 32.5 -12.5t12.5 -32.5t-10 -37q-219 -355 -219 -858q0 -507 219 -858q10 -17 10 -37t-12.5 -32.5t-32.5 -12.5q-25 0 -39 23q-128 193 -186 430.5t-58 486.5z" />
<glyph unicode=")" horiz-adv-x="483" d="M49 -416q0 20 10 37q220 353 220 858q0 501 -220 858q-10 17 -10 37t12.5 32.5t32.5 12.5q22 0 39 -22q127 -193 184.5 -431.5t57.5 -486.5t-57.5 -486t-184.5 -431q-17 -23 -39 -23q-20 0 -32.5 12.5t-12.5 32.5z" />
<glyph unicode="*" horiz-adv-x="860" d="M94 1241q11 32 58 19q16 -5 81 -29l173 -66l-9 185q-2 47 -2 86q0 49 35 49t35 -49q0 -39 -2 -86l-8 -185l172 66q61 23 82 29q23 6 36 2t19 -21q12 -34 -35 -49q-2 -1 -82 -23l-178 -49l115 -145q21 -25 53 -68q30 -37 2 -59q-31 -22 -57 16l-152 228l-102 -154 q-29 -44 -47 -74q-31 -36 -60 -16q-26 20 2 59q16 26 51 68l117 145l-262 72q-44 15 -35 49z" />
<glyph unicode="+" horiz-adv-x="1132" d="M72 723q0 17 12 30t29 13h409v410q0 17 12 29t31 12q17 0 30 -12t13 -29v-410h410q17 0 29 -13t12 -30q0 -19 -12 -31t-29 -12h-410v-410q0 -17 -13 -29t-30 -12q-19 0 -31 12t-12 29v410h-409q-17 0 -29 12t-12 31z" />
<glyph unicode="," horiz-adv-x="321" d="M102 41q0 25 16.5 42t45.5 17q36 0 55 -25t19 -67q0 -60 -40 -105.5t-73 -45.5q-19 0 -19 18q0 11 22 34t22 48q0 17 -24 37t-24 47z" />
<glyph unicode="-" horiz-adv-x="1001" d="M174 602q0 19 12 31t29 12h571q17 0 29 -12t12 -31q0 -17 -12 -29t-29 -12h-571q-17 0 -29 12t-12 29z" />
<glyph unicode="." horiz-adv-x="305" d="M102 41q0 26 17.5 42.5t44.5 16.5q25 0 41 -16.5t16 -42.5t-16 -42.5t-41 -16.5q-27 0 -44.5 16.5t-17.5 42.5z" />
<glyph unicode="/" horiz-adv-x="724" d="M-31 20q0 17 11 35l682 1325q14 33 45 33q19 0 32 -12t13 -31q0 -6 -11 -33l-682 -1327q-15 -30 -47 -30q-18 0 -30.5 11.5t-12.5 28.5z" />
<glyph unicode="0" d="M100 696q0 352 131.5 534.5t382.5 182.5t381.5 -182t130.5 -535t-130.5 -534.5t-381.5 -181.5t-382.5 182t-131.5 534zM199 696q0 -320 108 -473q106 -155 307 -155q200 0 306 155q108 152 108 473q0 323 -108 475q-106 154 -306 154q-201 0 -307 -154 q-108 -156 -108 -475z" />
<glyph unicode="1" d="M256 1231q0 27 35 41l319 133q32 8 39 8q45 0 45 -47v-1280h271q17 0 29 -13t12 -30q0 -19 -12 -31t-29 -12h-658q-19 0 -31 12t-12 31q0 18 12.5 30.5t30.5 12.5h289v1219l-270 -109q-19 -8 -29 -8q-16 0 -28.5 11.5t-12.5 31.5z" />
<glyph unicode="2" d="M174 47q0 141 27.5 221t97.5 152q57 60 138.5 111.5t177.5 103t153 92.5q76 56 117 123t41 160q0 125 -78 213q-45 50 -114 79t-150 29q-117 0 -217 -49q-31 -15 -59 -33.5t-42.5 -27.5t-27.5 -9q-18 0 -29.5 11.5t-11.5 31.5q0 24 43.5 56.5t87.5 50.5q127 51 262 51 q100 0 185.5 -36t146.5 -101q98 -109 98 -264q0 -112 -48 -193t-136 -149q-58 -43 -151.5 -94t-174.5 -101t-137 -106q-54 -52 -74 -113t-20 -170h727q18 0 30.5 -12.5t12.5 -30.5q0 -19 -12 -31t-31 -12h-789q-19 0 -31 12t-12 35z" />
<glyph unicode="3" d="M158 96q0 19 12 32t31 13q16 0 57 -20t68 -29q91 -31 198 -31q169 0 270 88t101 230q0 207 -211 278q-70 23 -164 23q-47 0 -47 41q0 16 11 28.5t30 12.5q100 0 176 31q158 66 158 243q0 124 -85.5 207.5t-225.5 83.5q-112 0 -199 -41q-25 -12 -50 -26.5t-38 -21.5 t-23 -7q-20 0 -32.5 12.5t-12.5 30.5q0 16 12.5 30t24.5 21.5t43 24.5q126 63 279 63q179 0 289 -104.5t110 -261.5q0 -119 -61.5 -202t-176.5 -118q138 -35 211.5 -127t73.5 -227q0 -175 -126 -284t-331 -109q-130 0 -237 28q-135 39 -135 88z" />
<glyph unicode="4" d="M106 387q0 16 11 31l669 960q24 35 56 35q22 0 34.5 -14t12.5 -35v-936h190q17 0 28 -12t11 -29t-11 -29t-28 -12h-190v-319q0 -19 -14.5 -33t-34.5 -14t-33.5 14t-13.5 33v319h-648q-15 0 -27 12t-12 29zM229 428h564v813z" />
<glyph unicode="5" d="M174 154q0 18 12.5 30.5t30.5 12.5q11 0 25.5 -10t38.5 -30t43 -32q100 -64 260 -64q164 0 268 105t104 264q0 161 -94 264t-244 103q-124 0 -221 -64q-33 -23 -64 -50.5t-46 -39.5t-27 -12q-41 0 -41 41q0 5 4 55l49 629q2 16 13 27.5t28 11.5h660q18 0 29.5 -12.5 t11.5 -30.5t-11.5 -30.5t-29.5 -12.5h-613l-45 -551q136 123 314 123q192 0 308 -127.5t116 -323.5q0 -193 -131 -321.5t-338 -128.5q-203 0 -330 83q-80 53 -80 91z" />
<glyph unicode="6" d="M154 629q0 66 5 131t20 145t38.5 149t64.5 137t95 115.5t133 77t174 29.5q150 0 248 -37q106 -41 106 -80q0 -19 -12.5 -32t-32.5 -13q-13 0 -58 21.5t-85 32.5q-77 22 -166 22q-83 0 -150 -28.5t-113 -80.5t-77 -113t-51 -136q-37 -135 -41 -351q57 101 153.5 164.5 t231.5 63.5q203 0 315.5 -117.5t112.5 -310.5t-119.5 -315.5t-316.5 -122.5q-104 0 -186.5 34.5t-136 93.5t-88.5 142.5t-49.5 177t-14.5 201.5zM254 504q8 -97 32 -174t67.5 -137.5t113 -93.5t162.5 -33q157 0 249.5 98t92.5 252q0 156 -89 250t-255 94q-127 0 -224.5 -70 t-148.5 -186z" />
<glyph unicode="7" d="M166 1114v238q0 18 12.5 30.5t30.5 12.5h813q18 0 30.5 -12.5t12.5 -30.5q0 -15 -16 -47l-609 -1293q-7 -20 -24.5 -27t-36.5 -1q-21 6 -29.5 25.5t0.5 39.5l533 1114q32 76 75 146h-704v-195q0 -19 -13 -31t-32 -12t-31 12t-12 31z" />
<glyph unicode="8" d="M137 352q0 66 26 123t62 95.5t91.5 74t97.5 54.5t98 40q-52 20 -92 39.5t-86 50t-76 64t-50 81t-20 101.5q0 157 113 247.5t313 90.5t314 -90.5t114 -247.5q0 -54 -20 -101t-50.5 -80.5t-76.5 -64.5t-87 -50.5t-93 -39.5q64 -25 108.5 -46t100 -56.5t89 -73t57.5 -92.5 t24 -119q0 -177 -127.5 -274.5t-350.5 -97.5q-226 0 -352.5 96.5t-126.5 275.5zM233 358q0 -139 98 -218t285 -79q185 0 283 78t98 219q0 54 -23 101t-58 80t-90 63.5t-103.5 50t-114.5 41.5q-77 -24 -137 -51.5t-117.5 -67.5t-89 -95t-31.5 -122zM283 1075q0 -48 22 -90.5 t53.5 -71.5t80 -56.5t88 -43t91.5 -33.5q67 24 117.5 48t103 59.5t81 82t28.5 101.5q0 124 -86 194t-246 70q-162 0 -247.5 -68.5t-85.5 -191.5z" />
<glyph unicode="9" d="M158 975q0 193 120.5 315.5t317.5 122.5q104 0 186.5 -34.5t136 -93.5t88.5 -142.5t49.5 -177t14.5 -201.5q0 -66 -5 -131t-20 -145t-39 -149t-65.5 -136.5t-95.5 -115.5t-133 -77.5t-174 -29.5q-152 0 -248 38q-47 16 -77 36.5t-30 39.5q0 20 13.5 33.5t33.5 13.5 q13 0 58.5 -21.5t85.5 -31.5q74 -22 166 -22q291 0 389 356q17 60 26.5 127.5t11.5 109t3 115.5q-57 -101 -152.5 -164t-230.5 -63q-205 0 -317.5 117t-112.5 311zM254 977q0 -157 88 -251.5t254 -94.5q128 0 224.5 70.5t148.5 187.5q-7 97 -30.5 174t-67 137.5t-113 93.5 t-162.5 33q-157 0 -249.5 -98t-92.5 -252z" />
<glyph unicode=":" horiz-adv-x="321" d="M102 41q0 26 17.5 42.5t44.5 16.5q25 0 42 -16.5t17 -42.5t-17 -42.5t-42 -16.5q-27 0 -44.5 16.5t-17.5 42.5zM102 877q0 26 17.5 42.5t44.5 16.5q25 0 42 -16.5t17 -42.5t-17 -43t-42 -17q-26 0 -44 17t-18 43z" />
<glyph unicode=";" horiz-adv-x="321" d="M102 41q0 25 16.5 42t45.5 17q36 0 55 -25t19 -67q0 -61 -39.5 -106t-73.5 -45q-19 0 -19 18q0 11 22 34t22 48q0 17 -24 37t-24 47zM104 877q0 26 17.5 42.5t44.5 16.5q25 0 42 -16.5t17 -42.5t-17 -43t-42 -17q-26 0 -44 17t-18 43z" />
<glyph unicode="&#x3c;" horiz-adv-x="1241" d="M92 723q0 46 55 68l900 409q24 8 32 8q20 0 32.5 -13.5t12.5 -33.5q0 -31 -30 -43l-883 -395l883 -395q30 -12 30 -43q0 -20 -13 -33.5t-32 -13.5q-16 0 -32 8l-900 409q-55 23 -55 68z" />
<glyph unicode="=" horiz-adv-x="1130" d="M72 473q0 17 12 30t29 13h905q17 0 29 -13t12 -30q0 -19 -12 -31t-29 -12h-905q-17 0 -29 12t-12 31zM72 973q0 17 12 30t29 13h905q17 0 29 -13t12 -30q0 -19 -12 -31t-29 -12h-905q-17 0 -29 12t-12 31z" />
<glyph unicode="&#x3e;" horiz-adv-x="1243" d="M117 285q0 31 30 43l883 395l-883 395q-30 12 -30 43q0 20 12.5 33.5t32.5 13.5q9 0 33 -8l899 -409q55 -22 55 -68q0 -45 -55 -68l-899 -409q-16 -8 -33 -8q-19 0 -32 13.5t-13 33.5z" />
<glyph unicode="?" horiz-adv-x="970" d="M43 1208q0 23 23.5 45.5t70.5 53.5q162 106 346 106q181 0 301.5 -110t120.5 -289q0 -61 -15 -109.5t-48 -89.5t-64.5 -69t-83.5 -66q-44 -32 -69 -53t-57.5 -56t-50.5 -74.5t-23 -86.5t-15.5 -66.5t-36.5 -19.5q-19 0 -31 13.5t-12 35.5q0 74 35 153q17 41 49.5 80 t56 60t79.5 64.5t77 60.5q117 96 117 223q0 143 -95 229t-239 86q-89 0 -156.5 -23.5t-136.5 -70.5q-19 -13 -37 -28t-26.5 -22.5t-18.5 -12.5t-20 -5q-17 0 -29 12t-12 29zM379 41q0 26 17.5 42.5t43.5 16.5q25 0 42.5 -16.5t17.5 -42.5t-17.5 -42.5t-42.5 -16.5 q-26 0 -43.5 16.5t-17.5 42.5z" />
<glyph unicode="@" horiz-adv-x="1640" d="M104 694q0 145 60.5 278t162 230t242 155t293.5 58q192 0 344.5 -72.5t242 -212t89.5 -323.5q0 -146 -44 -267.5t-125 -193.5t-183 -72q-115 0 -121 117q-92 -119 -283 -119q-114 0 -194 56q-94 64 -94 176q0 157 206 221q120 37 359 47q0 153 -72 225q-68 66 -182 66 q-97 0 -166 -37q-20 -10 -37 -22t-25.5 -17.5t-17.5 -5.5q-12 0 -20.5 7.5t-8.5 19.5q0 26 76 61q85 45 199 45q133 0 217 -78q92 -86 92 -258v-360q0 -96 80 -96q121 0 207 134t86 349q0 171 -81.5 300t-222.5 196t-321 67q-143 0 -274 -54.5t-225.5 -145.5t-150.5 -216 t-56 -260q0 -205 91 -361t253 -239.5t370 -83.5q241 0 437 74q16 6 37 15.5t31.5 13.5t17.5 4q10 0 17 -7t7 -18q0 -13 -16 -22t-62 -27l-3 -1.5t-3 -1t-4 -1.5q-213 -76 -459 -76q-221 0 -395 90t-272.5 257.5t-98.5 385.5zM551 502q0 -85 70 -135q63 -48 161 -48 q196 0 277 134v274q-219 -9 -346 -49q-162 -53 -162 -176z" />
<glyph unicode="A" horiz-adv-x="1411" d="M158 27v778q0 125 38.5 240.5t116.5 201.5q149 166 394 166t391 -166q77 -88 117 -204t40 -238v-778q0 -19 -14.5 -33t-34.5 -14q-21 0 -35 14t-14 33v489h-901v-489q0 -19 -14.5 -33t-34.5 -14q-21 0 -35 14t-14 33zM256 602h901v201q0 231 -125 377q-126 143 -325 143 q-202 0 -328 -143q-123 -144 -123 -377v-201z" />
<glyph unicode="B" horiz-adv-x="1310" d="M160 47v1301q0 19 14.5 33t34.5 14h457q84 0 158.5 -21.5t134.5 -63.5t95.5 -111.5t35.5 -158.5q0 -119 -51 -196t-138 -115v-4q145 -26 224 -121.5t79 -234.5q0 -94 -38 -166.5t-103 -116t-146 -65t-174 -21.5h-534q-20 0 -34.5 14t-14.5 33zM258 82h471 q78 0 143.5 16.5t118.5 50.5t83.5 92.5t31.5 137.5q0 123 -84.5 206t-241.5 83h-522v-586zM258 750h438q131 0 212 70t81 212q0 137 -96 209t-238 72h-397v-563z" />
<glyph unicode="C" horiz-adv-x="1355" d="M104 698q0 190 97.5 355t263 262.5t356.5 97.5q201 0 357 -78q45 -21 66.5 -39.5t21.5 -42.5q0 -19 -13 -32t-32 -13q-13 0 -32.5 12t-54 32t-73.5 34q-111 39 -240 39q-123 0 -237 -51t-197 -135.5t-132.5 -200.5t-49.5 -240q0 -139 50 -258t134.5 -200t197 -126.5 t236.5 -45.5q128 0 240 38q41 15 76 35t54 31.5t32 11.5q19 0 32 -13t13 -32q0 -24 -21.5 -42.5t-66.5 -39.5q-154 -77 -359 -77q-145 0 -276 52t-229.5 144t-156 227.5t-57.5 294.5z" />
<glyph unicode="D" horiz-adv-x="1507" d="M160 47v1301q0 19 14.5 33t34.5 14h450q386 0 586 -224q158 -182 158 -475q0 -199 -76 -343t-213 -230q-193 -123 -485 -123h-420q-20 0 -34.5 14t-14.5 33zM258 84h358q257 0 424 104q125 77 195 204.5t70 303.5q0 254 -144 418q-176 197 -520 197h-383v-1227z" />
<glyph unicode="E" horiz-adv-x="1206" d="M160 47v1301q0 19 14.5 33t34.5 14h891q17 0 29 -13t12 -30q0 -19 -12 -31t-29 -12h-842v-568h735q18 0 30.5 -12.5t12.5 -30.5q0 -19 -12 -32t-31 -13h-735v-567h842q17 0 29 -12t12 -31t-12 -31t-29 -12h-891q-20 0 -34.5 14t-14.5 33z" />
<glyph unicode="F" horiz-adv-x="1128" d="M160 27v1321q0 19 14.5 33t34.5 14h825q18 0 30.5 -12.5t12.5 -30.5q0 -19 -12 -31t-31 -12h-776v-568h672q18 0 30.5 -12.5t12.5 -30.5q0 -19 -12 -32t-31 -13h-672v-626q0 -19 -14 -33t-35 -14q-20 0 -34.5 14t-14.5 33z" />
<glyph unicode="G" horiz-adv-x="1511" d="M104 698q0 143 57 274.5t153 228.5t229 154.5t278 57.5q188 0 355 -78q45 -21 66.5 -39.5t21.5 -42.5q0 -19 -13 -32t-32 -13q-16 0 -35.5 11t-57.5 32.5t-86 38.5q-107 35 -219 35q-166 0 -308 -85.5t-225 -230.5t-83 -311q0 -115 31.5 -215.5t88 -175.5t133.5 -129.5 t169.5 -82t193.5 -27.5q131 0 246 41t195 110v356h-467q-17 0 -29 12t-12 31q0 18 12 31t29 13h514q45 0 45 -48v-587q0 -20 -12.5 -33.5t-32.5 -13.5q-23 0 -35 13t-12 34v94q-192 -141 -443 -141q-116 0 -222.5 30t-196.5 90.5t-156 145.5t-103 201t-37 251z" />
<glyph unicode="H" horiz-adv-x="1456" d="M160 27v1339q0 19 14.5 33t34.5 14q21 0 35 -14t14 -33v-623h940v623q0 19 14 33t35 14t35 -14t14 -33v-1339q0 -19 -14.5 -33t-34.5 -14q-21 0 -35 14t-14 33v628h-940v-628q0 -19 -14 -33t-35 -14q-20 0 -34.5 14t-14.5 33z" />
<glyph unicode="I" horiz-adv-x="417" d="M160 27v1339q0 19 14.5 33t34.5 14q21 0 35 -14t14 -33v-1339q0 -19 -14 -33t-35 -14q-20 0 -34.5 14t-14.5 33z" />
<glyph unicode="J" horiz-adv-x="1030" d="M23 143q0 19 13 32t32 13q20 0 36 -16q121 -106 265 -106q193 0 305 120q104 110 104 320v860q0 19 14 33t35 14t35.5 -14t14.5 -33v-864q0 -253 -140 -387q-71 -68 -167 -101.5t-199 -33.5q-87 0 -173 31.5t-153 88.5q-22 19 -22 43z" />
<glyph unicode="K" horiz-adv-x="1187" d="M160 27v1339q0 19 14.5 33t34.5 14q21 0 35 -14t14 -33v-698l735 727q18 18 41 18q19 0 32 -13.5t13 -33.5q0 -18 -16 -37l-565 -549l624 -723q11 -14 11 -30q0 -19 -13 -33t-33 -14q-28 0 -55 30l-602 703l-172 -166v-520q0 -19 -14 -33t-35 -14q-20 0 -34.5 14 t-14.5 33z" />
<glyph unicode="L" horiz-adv-x="1083" d="M160 47v1319q0 19 14.5 33t34.5 14q21 0 35 -14t14 -33v-1280h746q17 0 28.5 -12t11.5 -31t-11.5 -31t-28.5 -12h-795q-20 0 -34.5 14t-14.5 33z" />
<glyph unicode="M" horiz-adv-x="1695" d="M160 27v1327q0 24 16.5 41.5t42.5 17.5q35 0 53 -33l576 -931l575 931q22 33 56 33q25 0 41 -17.5t16 -41.5v-1327q0 -19 -13 -33t-34 -14t-35 14t-14 33v1198l-543 -873q-19 -30 -49 -30t-49 30l-543 873v-1198q0 -19 -13 -33t-34 -14t-35 14t-14 33z" />
<glyph unicode="N" horiz-adv-x="1511" d="M160 25v1335q0 22 16 37.5t39 15.5q26 0 51 -31l991 -1228v1214q0 19 13.5 32t34.5 13q20 0 33.5 -13t13.5 -32v-1335q0 -23 -16 -38t-40 -15q-29 0 -53 30l-987 1229v-1214q0 -19 -13.5 -32t-33.5 -13q-21 0 -35 13t-14 32z" />
<glyph unicode="O" horiz-adv-x="1648" d="M104 694q0 117 36.5 226.5t103 198t154.5 155t198 103t227 36.5q146 0 279.5 -57t230 -153.5t154 -230t57.5 -278.5t-57.5 -277t-154 -228t-230 -152.5t-279.5 -56.5t-279.5 56.5t-229.5 152t-153 228t-57 277.5zM207 694q0 -126 48.5 -241t130.5 -199t196.5 -134 t240.5 -50q170 0 312.5 84.5t224.5 228t82 311.5t-82 312t-225 229.5t-312 85.5t-311 -85.5t-223.5 -229.5t-81.5 -312z" />
<glyph unicode="P" horiz-adv-x="1259" d="M160 27v1319q0 20 14.5 34.5t34.5 14.5h498q190 0 315 -95q162 -124 162 -350q0 -113 -46 -207t-128 -151q-118 -86 -334 -86h-418v-479q0 -19 -14 -33t-35 -14q-20 0 -34.5 14t-14.5 33zM258 592h401q181 0 279 65q67 45 106 122t39 171q0 192 -133 285q-106 74 -260 74 h-432v-717z" />
<glyph unicode="Q" horiz-adv-x="1650" d="M104 694q0 145 57.5 278.5t154 230t230 153.5t279.5 57q145 0 278.5 -57.5t230.5 -153.5t154.5 -229.5t57.5 -278.5q0 -136 -50.5 -261t-136.5 -218.5t-204.5 -155t-251.5 -75.5q7 -11 27.5 -19t64.5 -22q374 -114 473 -140q10 -3 25 -6.5t23 -5.5l20 -5t18.5 -5.5 t14.5 -6t12 -7.5l8.5 -8.5t6 -10t1.5 -12.5q0 -41 -57 -41q-27 0 -78 11.5t-140 39.5t-155 49.5t-199 66.5t-196 66q-33 13 -33 41q0 11 2 15q-177 20 -323 118.5t-230 254.5t-84 337zM207 694q0 -126 48.5 -241.5t130.5 -199.5t197 -133.5t242 -49.5q170 0 312 84.5 t223.5 228t81.5 311.5q0 100 -30.5 194.5t-87.5 172.5t-132 136.5t-170 91t-197 32.5q-169 0 -312 -86t-224.5 -230t-81.5 -311z" />
<glyph unicode="R" horiz-adv-x="1304" d="M160 27v1319q0 20 14.5 34.5t34.5 14.5h496q109 0 188 -15t145 -57q166 -105 166 -340q0 -218 -166 -330q-107 -72 -262 -78l418 -516q12 -18 12 -32q0 -19 -15 -33t-36 -14q-29 0 -45 22l-455 571h-397v-546q0 -19 -14 -33t-35 -14q-20 0 -34.5 14t-14.5 33zM258 657 h426q185 0 281 54q139 82 139 272q0 195 -137 274q-54 32 -119.5 43t-161.5 11h-428v-654z" />
<glyph unicode="S" horiz-adv-x="1116" d="M96 154q0 23 14 36t35 13q14 0 29.5 -10t49.5 -32.5t77 -41.5q116 -53 256 -53q179 0 275 83t96 224q0 155 -178 237q-62 29 -201.5 68.5t-220.5 75.5q-226 98 -226 299q0 172 123.5 266t354.5 94q179 0 315 -61q76 -33 76 -68q0 -20 -12.5 -32.5t-34.5 -12.5 q-12 0 -29 7.5t-45.5 21t-56.5 22.5q-109 37 -218 37q-370 0 -370 -272q0 -84 54.5 -139.5t158.5 -94.5q53 -21 200 -61.5t224 -81.5q190 -103 190 -297q0 -190 -128.5 -295.5t-346.5 -105.5q-217 0 -412 110q-21 11 -35 28.5t-14 35.5z" />
<glyph unicode="T" horiz-adv-x="1120" d="M0 1352q0 18 12.5 30.5t30.5 12.5h1034q18 0 30.5 -12.5t12.5 -30.5q0 -19 -12 -31t-31 -12h-467v-1282q0 -19 -14.5 -33t-34.5 -14q-21 0 -35 14t-14 33v1282h-469q-19 0 -31 12t-12 31z" />
<glyph unicode="U" horiz-adv-x="1476" d="M158 551v815q0 19 14 33t35 14q20 0 34.5 -14t14.5 -33v-801q0 -230 121 -360q131 -137 360 -137q232 0 363 137q121 130 121 360v801q0 19 14.5 33t34.5 14q21 0 35 -14t14 -33v-815q0 -252 -137 -401q-156 -170 -445 -170q-286 0 -442 170q-137 149 -137 401z" />
<glyph unicode="V" horiz-adv-x="1236" d="M12 1364q0 22 13.5 35.5t35.5 13.5q37 0 50 -37l505 -1261l510 1261q13 37 50 37q21 0 35 -13t14 -34q0 -9 -8 -29l-533 -1306q-21 -51 -68 -51t-65 51l-533 1306q-6 24 -6 27z" />
<glyph unicode="W" horiz-adv-x="2226" d="M158 510v856q0 19 14 33t35 14q20 0 34.5 -14t14.5 -33v-858q0 -204 96 -315q108 -121 310 -121q148 0 249 90q70 62 111 159.5t41 217.5v827q0 19 14.5 33t34.5 14q21 0 35 -14t14 -33v-827q0 -120 41 -217.5t111 -159.5q104 -90 250 -90q201 0 309 121q98 109 98 315 v858q0 19 14 33t35 14q20 0 34.5 -14t14.5 -33v-856q0 -243 -120 -379q-130 -151 -381 -151q-158 0 -273 83q-130 92 -182 269q-52 -180 -182 -269q-115 -83 -273 -83q-251 0 -381 151q-118 134 -118 379z" />
<glyph unicode="X" horiz-adv-x="1243" d="M8 31q0 16 19 39l534 626l-532 627q-17 20 -17 39q0 20 16 35.5t38 15.5q27 0 49 -31l508 -608l507 608q22 31 50 31q21 0 38 -15t17 -36q0 -17 -18 -39l-531 -627l535 -626q16 -19 16 -39q0 -21 -16 -36t-37 -15q-27 0 -49 28l-510 613l-512 -613q-22 -28 -50 -28 q-21 0 -38 15t-17 36z" />
<glyph unicode="Y" horiz-adv-x="1157" d="M4 1368q0 19 13.5 32t33.5 13q27 0 47 -29l480 -659l483 659q23 29 45 29q20 0 33.5 -13.5t13.5 -33.5q0 -19 -12 -37l-514 -700v-602q0 -19 -14.5 -33t-34.5 -14q-21 0 -35.5 14t-14.5 33v602l-512 700q-12 15 -12 39z" />
<glyph unicode="Z" horiz-adv-x="1105" d="M8 1352q0 17 13 30t30 13h957q20 0 32.5 -12.5t12.5 -30.5q0 -15 -11 -33l-870 -1233h877q17 0 29 -12t12 -31t-12 -31t-29 -12h-965q-19 0 -31 12t-12 31q0 15 12 35l871 1231h-873q-18 0 -30.5 12.5t-12.5 30.5z" />
<glyph unicode="[" horiz-adv-x="602" d="M156 -408v1756q0 19 13 33t32 14h305q17 0 29 -12.5t12 -28.5q0 -19 -12 -31t-29 -12h-260v-1682h260q17 0 29 -12t12 -31q0 -15 -12 -27t-29 -12h-305q-19 0 -32 13t-13 32z" />
<glyph unicode="\" horiz-adv-x="509" d="M35 1354q-5 19 3.5 35t27.5 22q19 5 35 -4.5t22 -30.5l375 -1339q6 -17 -3 -33t-28 -22q-18 -5 -34.5 4.5t-20.5 27.5z" />
<glyph unicode="]" horiz-adv-x="600" d="M53 -414q0 18 12.5 30.5t28.5 12.5h260v1682h-260q-16 0 -28.5 12.5t-12.5 30.5q0 15 13 28t28 13h305q19 0 32 -14t13 -33v-1756q0 -19 -13 -32t-32 -13h-305q-15 0 -28 12t-13 27z" />
<glyph unicode="^" horiz-adv-x="995" d="M90 883q0 11 10 28l357 562q16 22 41 22t41 -22l356 -562q10 -17 10 -28q0 -17 -12 -29t-29 -12q-21 0 -37 22l-329 522l-330 -522q-16 -22 -37 -22q-17 0 -29 12t-12 29z" />
<glyph unicode="_" horiz-adv-x="1017" d="M-39 -229q0 15 11 25.5t28 10.5h1018q17 0 27 -10.5t10 -25.5q0 -37 -37 -37h-1018q-17 0 -28 10t-11 27z" />
<glyph unicode="`" horiz-adv-x="802" d="M268 1536q0 15 11 26t28 11q22 0 39 -31l180 -317q9 -15 9 -27t-9.5 -20.5t-21.5 -8.5q-22 0 -37 27l-186 307q-13 21 -13 33z" />
<glyph unicode="a" horiz-adv-x="962" d="M96 244q0 176 197 245q58 21 142 35t139.5 19.5t156.5 11.5v31q0 133 -57 202q-59 72 -193 72q-111 0 -205 -41q-22 -10 -44 -22t-33 -17.5t-21 -5.5q-14 0 -24.5 10t-10.5 27q0 20 22.5 37t65.5 37q112 51 256 51q177 0 261 -96q73 -89 73 -254v-563q0 -19 -13 -31 t-32 -12t-32 12t-13 31v26q-135 -69 -293 -69q-62 0 -120.5 15.5t-109 45.5t-81.5 83t-31 120zM180 250q0 -99 83.5 -149t197.5 -50q142 0 270 76v356q-6 0 -53.5 -2.5t-64.5 -4t-60.5 -5t-69 -7.5t-59.5 -11t-62 -15q-86 -27 -134 -71.5t-48 -116.5z" />
<glyph unicode="b" horiz-adv-x="1062" d="M156 53v1315q0 19 13 32t32 13t32 -13t13 -32v-504q126 72 282 72q198 0 318 -129q117 -127 117 -348q0 -193 -103 -312q-72 -84 -184.5 -125.5t-243.5 -41.5q-115 0 -229 14q-47 9 -47 59zM246 66q119 -13 192 -13q104 0 197 35t153 107q84 100 84 264q0 197 -104 301 q-97 100 -254 100q-146 0 -268 -74v-720z" />
<glyph unicode="c" horiz-adv-x="954" d="M98 459q0 182 109 307q67 81 166 124.5t211 43.5q128 0 233 -51q51 -25 51 -58q0 -14 -11 -26.5t-26 -12.5q-7 0 -13.5 2t-10.5 3.5t-17 8.5t-22 11q-76 39 -182 39q-90 0 -169.5 -35t-135.5 -98q-91 -109 -91 -260q0 -180 107 -287q111 -111 289 -111q119 0 188 35 q9 4 22 11t17 8.5t11 3.5t14 2q13 0 23.5 -11.5t10.5 -25.5q0 -33 -59 -59q-93 -43 -229 -43q-225 0 -357 135q-129 132 -129 344z" />
<glyph unicode="d" horiz-adv-x="1042" d="M98 457q0 177 90 299q59 86 153.5 133t211.5 47q123 0 244 -45v479q0 19 13 31t32 12t32 -12t13 -31v-1323q0 -22 -14 -34.5t-35 -12.5h-217q-129 0 -236 38.5t-176 113.5q-111 117 -111 305zM190 459q0 -161 89 -256q113 -127 350 -127h168v737q-121 47 -240 47 q-94 0 -170.5 -40.5t-126.5 -114.5q-70 -103 -70 -246z" />
<glyph unicode="e" horiz-adv-x="1073" d="M98 471q0 197 119 328q121 137 334 137q194 0 315 -131q111 -120 111 -307q0 -24 -13.5 -41t-39.5 -17h-731q6 -152 86 -247q108 -136 301 -136q143 0 254 62q12 7 24.5 15.5t18.5 12t13 6.5t13 3q14 0 24.5 -12.5t10.5 -26.5q0 -28 -55 -60q-135 -77 -308 -77 q-229 0 -364 157q-113 132 -113 334zM193 510h696q-3 154 -88 242q-93 106 -250 106q-180 0 -275 -119q-76 -89 -83 -229z" />
<glyph unicode="f" horiz-adv-x="667" d="M53 883q0 13 10.5 24t24.5 11h115v190q0 305 256 305q99 0 184 -43q68 -35 68 -70q0 -18 -10.5 -28t-26.5 -10q-12 0 -38 17t-68.5 34.5t-94.5 17.5q-100 0 -140 -55.5t-40 -171.5v-186h299q15 0 25 -10.5t10 -24.5q0 -17 -10 -27t-25 -10h-299v-823q0 -19 -13 -31 t-32 -12t-32 12t-13 31v823h-115q-14 0 -24.5 10t-10.5 27z" />
<glyph unicode="g" horiz-adv-x="1052" d="M98 461q0 99 29 189.5t86 156.5q109 129 289 129q101 0 171.5 -29t133.5 -78v64q0 19 13 31t32 12t32 -12t13 -31v-926q0 -215 -104 -325q-102 -111 -304 -111q-157 0 -262 78q-77 49 -77 86q0 16 10 27.5t26 11.5q13 0 21.5 -5t26.5 -23t36 -32q86 -69 217 -69 q167 0 244 90q76 91 76 260v137q-120 -110 -303 -110q-179 0 -291 129q-115 136 -115 350zM190 461q0 -180 86 -291q85 -109 236 -109q178 0 295 117v567q-40 34 -70.5 54t-92 39.5t-132.5 19.5q-148 0 -236 -113q-86 -108 -86 -284z" />
<glyph unicode="h" horiz-adv-x="1110" d="M156 23v1347q0 19 13 31t32 12t32 -12t13 -31v-639q48 98 138 151.5t210 53.5q169 0 264 -80q111 -99 111 -317v-516q0 -19 -13 -31t-32 -12t-31 12t-12 31v493q0 190 -88 270q-74 68 -213 68q-188 0 -277 -162q-57 -108 -57 -231v-438q0 -19 -13 -31t-32 -12t-32 12 t-13 31z" />
<glyph unicode="i" horiz-adv-x="401" d="M141 1374q0 23 16.5 39.5t41.5 16.5q23 0 39 -16.5t16 -39.5q0 -25 -16 -41t-39 -16q-25 0 -41.5 16t-16.5 41zM156 23v870q0 19 13 31t32 12t32 -12t13 -31v-870q0 -19 -13 -31t-32 -12t-32 12t-13 31z" />
<glyph unicode="j" horiz-adv-x="401" d="M2 -428q0 12 9 21t22.5 14.5t34 22t38.5 40.5q50 68 50 271v952q0 19 13 31t32 12t32 -12t13 -31v-997q0 -192 -70 -287q-23 -34 -60 -56t-69 -22q-20 0 -32.5 10.5t-12.5 30.5zM141 1374q0 23 16.5 39.5t41.5 16.5q23 0 39 -16.5t16 -39.5q0 -25 -16 -41t-39 -16 q-25 0 -41.5 16t-16.5 41z" />
<glyph unicode="k" horiz-adv-x="917" d="M156 23v1345q0 19 13 31t32 12t32 -12t13 -31v-940l530 494q14 14 31 14q18 0 29.5 -12.5t11.5 -28.5q0 -17 -14 -31l-381 -350l411 -467q10 -10 10 -27q0 -18 -11 -29t-29 -11q-22 0 -41 22l-404 457l-143 -135v-301q0 -19 -13 -31t-32 -12t-32 12t-13 31z" />
<glyph unicode="l" horiz-adv-x="401" d="M156 23v1345q0 19 13 32t32 13t32 -13t13 -32v-1345q0 -19 -13 -31t-32 -12t-32 12t-13 31z" />
<glyph unicode="m" horiz-adv-x="1652" d="M156 23v870q0 19 13 31t32 12t32 -12t13 -31v-117q86 160 293 160q141 0 223 -74q67 -57 90 -147q39 108 121 166q76 55 198 55q158 0 246 -88q94 -94 94 -281v-544q0 -19 -13 -31t-32 -12t-32 12t-13 31v522q0 163 -73 239q-67 70 -193 70q-145 0 -215 -113 q-61 -94 -61 -270v-448q0 -19 -13 -31t-32 -12t-32.5 12.5t-13.5 30.5v522q0 163 -73 239q-67 70 -193 70q-146 0 -215 -111q-61 -94 -61 -247v-473q0 -19 -13 -31t-32 -12t-32 12t-13 31z" />
<glyph unicode="n" horiz-adv-x="1110" d="M156 23v870q0 19 13 31t32 12t32 -12t13 -31v-162q48 98 138 151.5t210 53.5q169 0 264 -80q111 -99 111 -317v-516q0 -19 -13 -31t-32 -12t-31 12t-12 31v493q0 190 -88 270q-74 68 -213 68q-188 0 -277 -162q-57 -108 -57 -231v-438q0 -19 -13 -31t-32 -12t-32 12 t-13 31z" />
<glyph unicode="o" horiz-adv-x="1163" d="M98 459q0 97 34.5 183.5t96.5 150.5q137 143 353 143q213 0 350 -143q62 -64 96.5 -150.5t34.5 -183.5q0 -202 -131 -336q-140 -143 -350 -143q-213 0 -353 143q-131 134 -131 336zM188 459q0 -164 101 -279q115 -125 293 -125q175 0 290 125q103 118 103 279 q0 158 -103 276q-117 127 -290 127q-176 0 -293 -127q-101 -115 -101 -276z" />
<glyph unicode="p" horiz-adv-x="1052" d="M156 -430v1288q0 53 53 62q98 16 211 16q241 0 383 -127q149 -130 149 -348q0 -211 -118 -342q-67 -70 -157.5 -104.5t-178.5 -34.5q-146 0 -252 53v-463q0 -19 -13 -31t-32 -12t-32 12t-13 31zM246 109q59 -30 113 -43t133 -13q69 0 141 27.5t127 85.5q102 105 102 295 q0 183 -114 291q-119 110 -322 110q-103 0 -180 -14v-739z" />
<glyph unicode="q" horiz-adv-x="1046" d="M98 459q0 190 107 313q136 164 422 164q99 0 215 -21q26 -5 37.5 -19t11.5 -44v-1286q0 -17 -13 -30t-32 -13t-32 13t-13 30v584q-45 -92 -118.5 -131t-176.5 -39q-174 0 -283 112q-125 134 -125 367zM188 461q0 -201 97 -309q86 -99 231 -99q139 0 209 92q76 99 76 312 v389q-102 16 -180 16q-242 0 -355 -143q-78 -101 -78 -258z" />
<glyph unicode="r" horiz-adv-x="722" d="M156 23v870q0 19 13 31t32 12t32 -12t13 -31v-145h2q31 86 103.5 137t170.5 51q104 0 172 -45q49 -32 49 -64q0 -17 -12 -28t-29 -11q-10 0 -19 4.5t-28.5 16.5t-40.5 22q-48 23 -104 23q-115 0 -186 -98q-37 -51 -57.5 -122.5t-20.5 -141.5v-469q0 -19 -13 -31t-32 -12 t-32 12t-13 31z" />
<glyph unicode="s" horiz-adv-x="813" d="M82 111q0 14 11 26.5t26 12.5q8 0 16.5 -3.5t14 -7t17.5 -13t21 -15.5q89 -58 224 -58q108 0 167.5 45.5t59.5 132.5q0 65 -37.5 101.5t-114.5 70.5q-26 13 -111 43t-124 48q-152 69 -152 208q0 111 84.5 172.5t239.5 61.5q125 0 207 -33q76 -28 76 -59q0 -15 -11 -27 t-26 -12q-16 0 -76 24q-78 31 -164 31q-117 0 -177 -41t-60 -117q0 -56 30.5 -89.5t89.5 -59.5q35 -15 120.5 -45.5t115.5 -44.5q89 -41 136.5 -91.5t47.5 -133.5q0 -123 -85.5 -190.5t-233.5 -67.5q-159 0 -267 61q-26 13 -45.5 32.5t-19.5 37.5z" />
<glyph unicode="t" horiz-adv-x="681" d="M41 883q0 14 10 24.5t25 10.5h100v161q0 19 13 31t32 12t32 -12t13 -31v-161h332q14 0 24.5 -11t10.5 -24q0 -15 -10.5 -26t-24.5 -11h-332v-553q0 -118 46.5 -177t158.5 -59q49 0 90.5 17.5t68 35t38.5 17.5q13 0 23.5 -10.5t10.5 -24.5q0 -35 -81 -76q-74 -36 -164 -36 q-281 0 -281 307v559h-100q-15 0 -25 11t-10 26z" />
<glyph unicode="u" horiz-adv-x="1095" d="M141 383v510q0 19 13 31t32 12t32 -12t13 -31v-498q0 -128 43 -207q32 -57 102 -91t171 -34q102 0 172 34t102 91q24 42 33.5 88t9.5 119v498q0 19 13 31t32 12t32 -12t13 -31v-510q0 -85 -14 -142.5t-47 -109.5q-43 -72 -132.5 -111.5t-213.5 -39.5q-123 0 -212 40 t-132 111q-33 52 -47.5 109.5t-14.5 142.5z" />
<glyph unicode="v" horiz-adv-x="868" d="M12 893q0 20 12.5 31.5t34.5 11.5q31 0 45 -41l328 -807h6l328 809q16 39 45 39q45 0 45 -41q0 -15 -12 -43l-344 -817q-11 -28 -26.5 -41.5t-41.5 -13.5t-41 13.5t-26 41.5l-342 817q-11 29 -11 41z" />
<glyph unicode="w" horiz-adv-x="1617" d="M141 385v508q0 19 13 31t32 12t32 -12t13 -31v-500q0 -134 39 -211q55 -116 226 -116q172 0 229 131q39 79 39 217v479q0 19 13 31t32 12t32 -12t13 -31v-479q0 -136 37 -217q57 -131 231 -131q165 0 226 116q41 78 41 211v500q0 19 12 31t31 12t32 -12t13 -31v-508 q0 -155 -52 -256q-37 -71 -114 -110t-183 -39q-96 0 -168 35t-110 96q-28 45 -41 88q-16 -45 -43 -88q-36 -61 -108 -96t-169 -35q-107 0 -183.5 39.5t-115.5 111.5q-49 98 -49 254z" />
<glyph unicode="x" horiz-adv-x="888" d="M10 25q0 5 1.5 10t5.5 10.5t6 8t9 10.5t9 10l346 395l-334 379q-24 27 -24 45q0 19 13.5 31t33.5 12q24 0 47 -27l321 -377l322 375q22 29 47 29q20 0 32.5 -12t12.5 -31q0 -16 -22 -41l-336 -379l356 -403q23 -30 23 -45q0 -19 -13.5 -32t-34.5 -13q-29 0 -51 30 l-336 396l-338 -400q-26 -26 -49 -26q-20 0 -33.5 13t-13.5 32z" />
<glyph unicode="y" horiz-adv-x="899" d="M12 889q0 20 14.5 33.5t34.5 13.5q32 0 45 -31l359 -842l330 836q15 37 45 37q19 0 33 -12.5t14 -32.5q0 -17 -13 -47l-358 -891q-81 -206 -183 -315t-249 -109q-20 0 -32.5 13t-12.5 32t12.5 32t32.5 13q115 0 191 82.5t145 249.5l-397 901q-11 28 -11 37z" />
<glyph unicode="z" horiz-adv-x="774" d="M10 881q0 14 12 25.5t27 11.5h662q17 0 27 -9t10 -24q0 -21 -21 -45l-575 -762h583q15 0 27 -12t12 -27q0 -17 -11.5 -28t-27.5 -11h-667q-17 0 -28 10t-11 25q0 18 18 39l580 768h-578q-16 0 -27.5 10.5t-11.5 28.5z" />
<glyph unicode="{" horiz-adv-x="604" d="M37 528q0 43 31 43h8q198 0 198 324q0 55 -3 177.5t-3 146.5q0 145 63 208.5t185 63.5q18 0 28.5 -11.5t10.5 -27.5q0 -15 -10.5 -25.5t-28.5 -11.5q-36 -2 -60.5 -9.5t-49.5 -27.5t-37.5 -62.5t-12.5 -107.5q0 -33 3 -151t3 -170q0 -302 -192 -359q104 -31 148 -121.5 t44 -236.5q0 -51 -3 -169t-3 -151q0 -65 12.5 -107.5t37.5 -62.5t49.5 -27t60.5 -9q18 -1 28.5 -12t10.5 -27t-10.5 -27.5t-28.5 -11.5q-122 0 -185 63.5t-63 208.5q0 26 3 148t3 176q0 323 -198 323h-8q-31 0 -31 43z" />
<glyph unicode="|" horiz-adv-x="413" d="M162 -422v1790q0 19 12.5 32t32.5 13t33.5 -13t13.5 -32v-1790q0 -19 -13.5 -32t-33.5 -13t-33.5 13t-11.5 32z" />
<glyph unicode="}" horiz-adv-x="604" d="M49 -395q0 16 10.5 27t28.5 12q36 2 60.5 9t49.5 27t37.5 62.5t12.5 107.5q0 33 -3 151t-3 169q0 146 44 236.5t148 121.5q-192 57 -192 359q0 52 3 170t3 151q0 65 -12.5 107.5t-37.5 62.5t-49.5 27.5t-60.5 9.5q-18 1 -28.5 11.5t-10.5 25.5q0 16 10.5 27.5t28.5 11.5 q122 0 185 -63.5t63 -208.5q0 -24 -4 -146.5t-4 -177.5q0 -324 200 -324h9q30 0 30 -43t-30 -43h-9q-200 0 -200 -323q0 -54 4 -176t4 -148q0 -145 -63 -208.5t-185 -63.5q-18 0 -28.5 11.5t-10.5 27.5z" />
<glyph unicode="~" horiz-adv-x="1130" d="M111 555q0 54 73.5 111t175.5 57q53 0 102.5 -16.5t87 -40t72.5 -47t74 -40t76 -16.5q42 0 75 12.5t52.5 30.5t34 36.5t28.5 31t29 12.5q20 0 30.5 -12t10.5 -31q0 -54 -73 -111t-177 -57q-46 0 -90 16.5t-80 39.5l-72 46t-80 39.5t-89 16.5q-42 0 -75 -12.5t-52.5 -30.5 t-34 -35.5t-28.5 -30t-29 -12.5q-20 0 -30.5 12t-10.5 31z" />
<glyph unicode="&#xa2;" d="M227 459q0 185 111 309q62 74 152 117t192 49v125q0 12 8.5 20t20.5 8q11 0 18.5 -8t7.5 -20v-125q113 -3 209 -53q29 -15 40 -25.5t11 -26.5q0 -14 -10.5 -25t-25.5 -11q-8 0 -14.5 2.5t-21 10.5t-28.5 15q-76 39 -184 39q-91 0 -170.5 -36.5t-136.5 -104.5 q-89 -110 -89 -260q0 -178 109 -293q108 -111 289 -111q121 0 188 33q15 6 28 13.5t19.5 10.5t14.5 3q15 0 25.5 -11t10.5 -26q0 -16 -13 -27.5t-46 -25.5q-81 -40 -205 -43v-123q0 -12 -7.5 -20.5t-18.5 -8.5q-12 0 -20.5 8.5t-8.5 20.5v123q-199 9 -320 127 q-135 132 -135 350z" />
<glyph unicode="&#xa3;" d="M156 43q0 17 12 30t29 13h77q129 104 129 276q0 100 -55 242h-106q-17 0 -29 12t-12 29t12 29t29 12h73q-65 167 -65 297q0 81 26.5 155.5t78 137t139.5 100t200 37.5q120 0 234 -31q49 -12 69.5 -25.5t20.5 -33.5q0 -17 -12 -30t-29 -13q-10 0 -25 4.5t-39.5 12.5 t-46.5 14q-68 20 -166 20q-91 0 -161 -31t-111 -82.5t-61.5 -111.5t-20.5 -125q0 -121 70 -295h442q17 0 28 -12t11 -29t-11 -29t-28 -12h-412q52 -150 52 -242q0 -164 -119 -276h643q17 0 29 -13t12 -30q0 -19 -12 -31t-29 -12h-825q-17 0 -29 12t-12 31z" />
<glyph unicode="&#xa5;" d="M39 1366q0 19 13.5 33t33.5 14q24 0 47 -29l479 -659l484 659q19 29 45 29q20 0 33.5 -14t13.5 -33q0 -22 -12 -37l-474 -641h353q13 0 24 -11t11 -24q0 -15 -10.5 -25t-24.5 -10h-393v-196h393q14 0 24.5 -10t10.5 -25q0 -13 -11 -24t-24 -11h-393v-325 q0 -20 -14.5 -33.5t-35.5 -13.5q-22 0 -35.5 13.5t-13.5 33.5v325h-393q-15 0 -25 10.5t-10 24.5q0 15 10 25t25 10h393v196h-393q-15 0 -25 10t-10 25q0 14 10 24.5t25 10.5h352l-471 641q-12 24 -12 37z" />
<glyph unicode="&#xa8;" horiz-adv-x="802" d="M174 1374q0 24 16 40t41 16q23 0 40.5 -16.5t17.5 -39.5q0 -24 -17 -40.5t-41 -16.5q-25 0 -41 16t-16 41zM514 1374q0 24 16 40t41 16q23 0 39.5 -16.5t16.5 -39.5q0 -24 -16.5 -40.5t-39.5 -16.5q-25 0 -41 16t-16 41z" />
<glyph unicode="&#xa9;" horiz-adv-x="1716" d="M104 733q0 154 59.5 294t160.5 241t240.5 161t293.5 60t294 -60t241 -161t161 -241t60 -294t-59.5 -293t-160.5 -239.5t-240.5 -159.5t-293.5 -59q-155 0 -295 59t-241 159.5t-160.5 239.5t-59.5 293zM162 733q0 -141 55 -269.5t147.5 -221.5t222 -148t271.5 -55 t271.5 55t222 148t147.5 221.5t55 269.5q0 190 -92.5 350.5t-252.5 254.5t-349 94q-191 0 -352 -94t-253.5 -254.5t-92.5 -350.5zM498 727q0 161 112 269t269 108q92 0 174 -33q55 -25 55 -47q0 -13 -9.5 -22t-21.5 -9q-7 0 -27 11.5t-36 17.5q-56 25 -135 25 q-131 0 -225.5 -91.5t-94.5 -228.5q0 -145 92.5 -232t229.5 -87q79 0 137 20q14 4 34.5 12.5t28.5 8.5q12 0 20.5 -9t8.5 -22q0 -22 -49 -39q-85 -29 -180 -29q-164 0 -273.5 103t-109.5 274z" />
<glyph unicode="&#xab;" horiz-adv-x="1101" d="M78 461q0 12 14 31l422 434q11 14 31 14q18 0 29.5 -11.5t11.5 -27.5q0 -18 -13 -31l-395 -409l395 -410q13 -13 13 -31q0 -17 -11 -27.5t-30 -10.5q-20 0 -31 14l-422 434q-14 19 -14 31zM516 461q0 17 14 31l420 434q14 14 33 14q17 0 29 -12t12 -27q0 -20 -14 -31 l-396 -409l396 -410q14 -11 14 -31q0 -17 -12 -27.5t-31 -10.5q-17 0 -31 14l-420 434q-14 14 -14 31z" />
<glyph unicode="&#xad;" horiz-adv-x="1001" d="M174 602q0 19 12 31t29 12h571q17 0 29 -12t12 -31q0 -17 -12 -29t-29 -12h-571q-17 0 -29 12t-12 29z" />
<glyph unicode="&#xae;" horiz-adv-x="960" d="M104 1098q0 157 110 267t265 110q157 0 268 -110t111 -267q0 -155 -110 -265t-267 -110t-267 110t-110 265zM141 1098q0 -140 98.5 -239t239.5 -99t240.5 99t99.5 239q0 142 -99.5 241t-240.5 99q-140 0 -239 -99t-99 -241zM328 932v336q0 18 20 18h141q142 0 142 -108 q0 -92 -105 -107l97 -119q10 -13 10 -22q0 -8 -5 -13.5t-12 -5.5q-11 0 -24 19l-111 139h-114v-137q0 -8 -5 -14.5t-14 -6.5q-7 0 -13.5 6.5t-6.5 14.5zM367 1106h116q109 0 109 72q0 73 -105 73h-120v-145z" />
<glyph unicode="&#xb4;" horiz-adv-x="802" d="M268 1198q0 7 8 27l181 317q14 31 39 31q17 0 28 -11t11 -26q0 -12 -13 -33l-186 -307q-15 -27 -35 -27q-14 0 -23.5 8.5t-9.5 20.5z" />
<glyph unicode="&#xb8;" horiz-adv-x="768" d="M229 -352q0 10 8 18t19 8q7 0 29 -3t43 -3q64 0 111.5 27t47.5 84q0 49 -39.5 72.5t-95.5 23.5q-40 0 -37 41l7 94h51v-90q77 -2 129.5 -38t52.5 -103q0 -45 -22 -79t-57.5 -52t-74 -26.5t-79.5 -8.5q-38 0 -68 6q-25 6 -25 29z" />
<glyph unicode="&#xbb;" horiz-adv-x="1101" d="M78 20q0 17 14 31l395 410l-395 409q-14 14 -14 31q0 15 12.5 27t30.5 12q20 0 31 -14l421 -434q13 -17 13 -31t-13 -31l-421 -434q-11 -14 -31 -14q-19 0 -31 10.5t-12 27.5zM516 20q0 19 12 31l398 410l-398 409q-12 12 -12 31q0 16 11.5 27.5t29.5 11.5q20 0 31 -14 l422 -434q14 -19 14 -31t-14 -31l-422 -434q-11 -14 -31 -14q-19 0 -30 10.5t-11 27.5z" />
<glyph unicode="&#xc0;" horiz-adv-x="1411" d="M158 27v778q0 125 38.5 240.5t116.5 201.5q149 166 394 166t391 -166q77 -88 117 -204t40 -238v-778q0 -19 -14.5 -33t-34.5 -14q-21 0 -35 14t-14 33v489h-901v-489q0 -19 -14.5 -33t-34.5 -14q-21 0 -35 14t-14 33zM256 602h901v201q0 231 -125 377q-126 143 -325 143 q-202 0 -328 -143q-123 -144 -123 -377v-201zM571 1952q0 15 11 26t28 11q22 0 39 -31l180 -318q9 -15 9 -26q0 -12 -9.5 -20.5t-21.5 -8.5q-22 0 -37 27l-186 307q-13 21 -13 33z" />
<glyph unicode="&#xc1;" horiz-adv-x="1411" d="M158 27v778q0 125 38.5 240.5t116.5 201.5q149 166 394 166t391 -166q77 -88 117 -204t40 -238v-778q0 -19 -14.5 -33t-34.5 -14q-21 0 -35 14t-14 33v489h-901v-489q0 -19 -14.5 -33t-34.5 -14q-21 0 -35 14t-14 33zM256 602h901v201q0 231 -125 377q-126 143 -325 143 q-202 0 -328 -143q-123 -144 -123 -377v-201zM571 1614q0 4 9 26l180 318q14 31 39 31q17 0 28 -11t11 -26q0 -12 -13 -33l-186 -307q-15 -27 -35 -27q-14 0 -23.5 8.5t-9.5 20.5z" />
<glyph unicode="&#xc2;" horiz-adv-x="1411" d="M158 27v778q0 125 38.5 240.5t116.5 201.5q149 166 394 166t391 -166q77 -88 117 -204t40 -238v-778q0 -19 -14.5 -33t-34.5 -14q-21 0 -35 14t-14 33v489h-901v-489q0 -19 -14.5 -33t-34.5 -14q-21 0 -35 14t-14 33zM256 602h901v201q0 231 -125 377q-126 143 -325 143 q-202 0 -328 -143q-123 -144 -123 -377v-201zM387 1651q0 16 14 30l271 287q15 19 35 19q21 0 36 -19l269 -287q16 -16 16 -30q0 -15 -10.5 -25t-24.5 -10t-26 12l-260 275l-261 -275q-12 -12 -26 -12t-23.5 10t-9.5 25z" />
<glyph unicode="&#xc3;" horiz-adv-x="1411" d="M158 27v778q0 125 38.5 240.5t116.5 201.5q149 166 394 166t391 -166q77 -88 117 -204t40 -238v-778q0 -19 -14.5 -33t-34.5 -14q-21 0 -35 14t-14 33v489h-901v-489q0 -19 -14.5 -33t-34.5 -14q-21 0 -35 14t-14 33zM256 602h901v201q0 231 -125 377q-126 143 -325 143 q-202 0 -328 -143q-123 -144 -123 -377v-201zM387 1817q0 28 41 69q52 49 137 49q68 0 152 -51q66 -43 96 -50q17 -5 35 -5q33 0 58 13t36.5 29t24.5 29t24 13q15 0 25 -10t10 -25q0 -35 -43 -72q-50 -47 -137 -47q-26 0 -55.5 10t-45 18.5t-47.5 27.5q-80 53 -133 53 q-33 0 -58 -13.5t-36 -29.5t-24.5 -29.5t-26.5 -13.5q-14 0 -23.5 10t-9.5 25z" />
<glyph unicode="&#xc4;" horiz-adv-x="1411" d="M158 27v778q0 125 38.5 240.5t116.5 201.5q149 166 394 166t391 -166q77 -88 117 -204t40 -238v-778q0 -19 -14.5 -33t-34.5 -14q-21 0 -35 14t-14 33v489h-901v-489q0 -19 -14.5 -33t-34.5 -14q-21 0 -35 14t-14 33zM256 602h901v201q0 231 -125 377q-126 143 -325 143 q-202 0 -328 -143q-123 -144 -123 -377v-201zM479 1790q0 23 16.5 39t41.5 16q23 0 40 -16t17 -39q0 -24 -16.5 -40.5t-40.5 -16.5q-25 0 -41.5 16t-16.5 41zM819 1790q0 23 16.5 39t41.5 16q23 0 39 -16t16 -39q0 -25 -16 -41t-39 -16q-25 0 -41.5 16t-16.5 41z" />
<glyph unicode="&#xc5;" horiz-adv-x="1411" d="M158 27v778q0 125 38.5 240.5t116.5 201.5q149 166 394 166t391 -166q77 -88 117 -204t40 -238v-778q0 -19 -14.5 -33t-34.5 -14q-21 0 -35 14t-14 33v489h-901v-489q0 -19 -14.5 -33t-34.5 -14q-21 0 -35 14t-14 33zM256 602h901v201q0 231 -125 377q-126 143 -325 143 q-202 0 -328 -143q-123 -144 -123 -377v-201zM473 1769q0 96 68 164t164 68q95 0 162 -67.5t67 -164.5t-67 -164t-162 -67q-96 0 -164 67.5t-68 163.5zM524 1769q0 -75 53.5 -127.5t127.5 -52.5t126 52t52 128q0 75 -52.5 129t-125.5 54q-74 0 -127.5 -54t-53.5 -129z" />
<glyph unicode="&#xc6;" horiz-adv-x="2088" d="M158 27v778q0 123 39 238.5t116 203.5q146 166 389 166q297 0 447 -242v177q0 19 14 33t35 14h784q17 0 29 -13t12 -30q0 -19 -12 -31t-29 -12h-735v-568h629q18 0 30.5 -12.5t12.5 -30.5q0 -19 -12 -32t-31 -13h-629v-567h735q17 0 29 -12t12 -31t-12 -31t-29 -12h-784 q-20 0 -34.5 13t-14.5 34v469h-893v-489q0 -19 -14.5 -33t-34.5 -14q-21 0 -35 14t-14 33zM256 602h893v201q0 104 -32.5 206t-90.5 171q-126 143 -324 143q-200 0 -323 -143q-123 -144 -123 -377v-201z" />
<glyph unicode="&#xc7;" horiz-adv-x="1355" d="M104 698q0 190 97.5 355t263 262.5t356.5 97.5q201 0 357 -78q45 -21 66.5 -39.5t21.5 -42.5q0 -19 -13 -32t-32 -13q-13 0 -32.5 12t-54 32t-73.5 34q-111 39 -240 39q-123 0 -237 -51t-197 -135.5t-132.5 -200.5t-49.5 -240q0 -139 50 -258t134.5 -200t197 -126.5 t236.5 -45.5q128 0 240 38q41 15 76 35t54 31.5t32 11.5q19 0 32 -13t13 -32q0 -24 -21.5 -42.5t-66.5 -39.5q-143 -72 -338 -77v-60q77 -2 129.5 -38t52.5 -103q0 -45 -22 -79t-57.5 -52t-74 -26.5t-79.5 -8.5q-38 0 -68 6q-25 6 -25 29q0 10 8 18t19 8q7 0 29 -3t43 -3 q64 0 111.5 27t47.5 84q0 49 -39.5 72.5t-95.5 23.5q-43 0 -37 41l5 66q-140 5 -265 58.5t-218.5 145t-148.5 224.5t-55 288z" />
<glyph unicode="&#xc8;" horiz-adv-x="1206" d="M160 47v1301q0 19 14.5 33t34.5 14h891q17 0 29 -13t12 -30q0 -19 -12 -31t-29 -12h-842v-568h735q18 0 30.5 -12.5t12.5 -30.5q0 -19 -12 -32t-31 -13h-735v-567h842q17 0 29 -12t12 -31t-12 -31t-29 -12h-891q-20 0 -34.5 14t-14.5 33zM469 1952q0 15 11 26t28 11 q22 0 39 -31l180 -318q8 -13 8 -26q0 -12 -9 -20.5t-21 -8.5q-22 0 -37 27l-187 307q-12 19 -12 33z" />
<glyph unicode="&#xc9;" horiz-adv-x="1206" d="M160 47v1301q0 19 14.5 33t34.5 14h891q17 0 29 -13t12 -30q0 -19 -12 -31t-29 -12h-842v-568h735q18 0 30.5 -12.5t12.5 -30.5q0 -19 -12 -32t-31 -13h-735v-567h842q17 0 29 -12t12 -31t-12 -31t-29 -12h-891q-20 0 -34.5 14t-14.5 33zM508 1614q0 6 8 26l180 318 q14 31 39 31q17 0 28 -11t11 -26q0 -14 -12 -33l-187 -307q-15 -27 -34 -27q-14 0 -23.5 8.5t-9.5 20.5z" />
<glyph unicode="&#xca;" horiz-adv-x="1206" d="M160 47v1301q0 19 14.5 33t34.5 14h891q17 0 29 -13t12 -30q0 -19 -12 -31t-29 -12h-842v-568h735q18 0 30.5 -12.5t12.5 -30.5q0 -19 -12 -32t-31 -13h-735v-567h842q17 0 29 -12t12 -31t-12 -31t-29 -12h-891q-20 0 -34.5 14t-14.5 33zM301 1651q0 16 14 30l271 287 q15 19 35 19q21 0 36 -19l269 -287q16 -16 16 -30q0 -15 -10.5 -25t-24.5 -10t-26 12l-260 275l-261 -275q-12 -12 -26 -12t-23.5 10t-9.5 25z" />
<glyph unicode="&#xcb;" horiz-adv-x="1206" d="M160 47v1301q0 19 14.5 33t34.5 14h891q17 0 29 -13t12 -30q0 -19 -12 -31t-29 -12h-842v-568h735q18 0 30.5 -12.5t12.5 -30.5q0 -19 -12 -32t-31 -13h-735v-567h842q17 0 29 -12t12 -31t-12 -31t-29 -12h-891q-20 0 -34.5 14t-14.5 33zM403 1790q0 23 16.5 39t41.5 16 q23 0 40 -16t17 -39q0 -24 -16.5 -40.5t-40.5 -16.5q-25 0 -41.5 16t-16.5 41zM743 1790q0 23 16.5 39t41.5 16q23 0 39 -16t16 -39q0 -25 -16 -41t-39 -16q-25 0 -41.5 16t-16.5 41z" />
<glyph unicode="&#xcc;" horiz-adv-x="419" d="M82 1952q0 15 11 26t28 11q22 0 39 -31l180 -318q8 -13 8 -26q0 -12 -9.5 -20.5t-21.5 -8.5q-21 0 -36 27l-187 307q-12 19 -12 33zM160 27v1339q0 19 14.5 33t34.5 14q21 0 35 -14t14 -33v-1339q0 -19 -14 -33t-35 -14q-20 0 -34.5 14t-14.5 33z" />
<glyph unicode="&#xcd;" horiz-adv-x="419" d="M82 1614q0 6 8 26l180 318q14 31 39 31q17 0 28 -11t11 -26q0 -14 -12 -33l-186 -307q-15 -27 -35 -27q-14 0 -23.5 8.5t-9.5 20.5zM160 27v1339q0 19 14.5 33t34.5 14q21 0 35 -14t14 -33v-1339q0 -19 -14 -33t-35 -14q-20 0 -34.5 14t-14.5 33z" />
<glyph unicode="&#xce;" horiz-adv-x="419" d="M-104 1651q0 16 14 30l270 287q15 19 35 19q22 0 37 -19l268 -287q17 -17 17 -30q0 -15 -10.5 -25t-24.5 -10q-15 0 -27 12l-260 275l-260 -275q-12 -12 -27 -12q-14 0 -23 10t-9 25zM160 27v1339q0 19 14.5 33t34.5 14q21 0 35 -14t14 -33v-1339q0 -19 -14 -33t-35 -14 q-20 0 -34.5 14t-14.5 33z" />
<glyph unicode="&#xcf;" horiz-adv-x="419" d="M-12 1790q0 23 16 39t41 16q23 0 40 -16t17 -39q0 -24 -16.5 -40.5t-40.5 -16.5q-25 0 -41 16t-16 41zM160 27v1339q0 19 14.5 33t34.5 14q21 0 35 -14t14 -33v-1339q0 -19 -14 -33t-35 -14q-20 0 -34.5 14t-14.5 33zM328 1790q0 23 16 39t41 16q23 0 39 -16t16 -39 q0 -25 -16 -41t-39 -16q-25 0 -41 16t-16 41z" />
<glyph unicode="&#xd0;" horiz-adv-x="1513" d="M-45 696q0 17 12 29t27 12h172v611q0 19 14 33t35 14h451q386 0 583 -224q160 -181 160 -475q0 -200 -76.5 -345.5t-214.5 -227.5q-179 -123 -483 -123h-420q-21 0 -35 14t-14 33v608h-172q-15 0 -27 12t-12 29zM264 84h357q249 0 411 90q131 73 204 205.5t73 316.5 q0 257 -142 418q-170 197 -520 197h-383v-574h348q17 0 29 -12t12 -29t-12 -29t-29 -12h-348v-571z" />
<glyph unicode="&#xd1;" horiz-adv-x="1511" d="M160 25v1335q0 22 16 37.5t39 15.5q26 0 51 -31l991 -1228v1214q0 19 13.5 32t34.5 13q20 0 33.5 -13t13.5 -32v-1335q0 -23 -16 -38t-40 -15q-29 0 -53 30l-987 1229v-1214q0 -19 -13.5 -32t-33.5 -13q-21 0 -35 13t-14 32zM440 1817q0 28 41 69q52 49 137 49 q68 0 152 -51q66 -43 96 -50q17 -5 35 -5q33 0 58 13t36.5 29t24.5 29t24 13q15 0 25 -10t10 -25q0 -35 -43 -72q-50 -47 -137 -47q-26 0 -55.5 10t-43.5 18t-48 28q-80 53 -134 53q-33 0 -58 -13.5t-36 -29.5t-24.5 -29.5t-26.5 -13.5q-14 0 -23.5 10t-9.5 25z" />
<glyph unicode="&#xd2;" horiz-adv-x="1648" d="M104 694q0 117 36.5 226.5t103 198t154.5 155t198 103t227 36.5q146 0 279.5 -57t230 -153.5t154 -230t57.5 -278.5t-57.5 -277t-154 -228t-230 -152.5t-279.5 -56.5t-279.5 56.5t-229.5 152t-153 228t-57 277.5zM207 694q0 -126 48.5 -241t130.5 -199t196.5 -134 t240.5 -50q170 0 312.5 84.5t224.5 228t82 311.5t-82 312t-225 229.5t-312 85.5t-311 -85.5t-223.5 -229.5t-81.5 -312zM688 1952q0 15 11 26t28 11q22 0 39 -31l180 -318q8 -13 8 -26q0 -12 -9 -20.5t-21 -8.5q-22 0 -37 27l-187 307q-12 19 -12 33z" />
<glyph unicode="&#xd3;" horiz-adv-x="1648" d="M104 694q0 117 36.5 226.5t103 198t154.5 155t198 103t227 36.5q146 0 279.5 -57t230 -153.5t154 -230t57.5 -278.5t-57.5 -277t-154 -228t-230 -152.5t-279.5 -56.5t-279.5 56.5t-229.5 152t-153 228t-57 277.5zM207 694q0 -126 48.5 -241t130.5 -199t196.5 -134 t240.5 -50q170 0 312.5 84.5t224.5 228t82 311.5t-82 312t-225 229.5t-312 85.5t-311 -85.5t-223.5 -229.5t-81.5 -312zM690 1614q0 6 8 26l181 318q14 31 39 31q17 0 27.5 -11t10.5 -26q0 -14 -12 -33l-186 -307q-15 -27 -35 -27q-14 0 -23.5 8.5t-9.5 20.5z" />
<glyph unicode="&#xd4;" horiz-adv-x="1648" d="M104 694q0 117 36.5 226.5t103 198t154.5 155t198 103t227 36.5q146 0 279.5 -57t230 -153.5t154 -230t57.5 -278.5t-57.5 -277t-154 -228t-230 -152.5t-279.5 -56.5t-279.5 56.5t-229.5 152t-153 228t-57 277.5zM207 694q0 -126 48.5 -241t130.5 -199t196.5 -134 t240.5 -50q170 0 312.5 84.5t224.5 228t82 311.5t-82 312t-225 229.5t-312 85.5t-311 -85.5t-223.5 -229.5t-81.5 -312zM502 1651q0 16 14 30l270 287q15 19 35 19q22 0 37 -19l268 -287q17 -17 17 -30q0 -15 -10.5 -25t-24.5 -10q-15 0 -27 12l-260 275l-260 -275 q-12 -12 -26 -12t-23.5 10t-9.5 25z" />
<glyph unicode="&#xd5;" horiz-adv-x="1648" d="M104 694q0 117 36.5 226.5t103 198t154.5 155t198 103t227 36.5q146 0 279.5 -57t230 -153.5t154 -230t57.5 -278.5t-57.5 -277t-154 -228t-230 -152.5t-279.5 -56.5t-279.5 56.5t-229.5 152t-153 228t-57 277.5zM207 694q0 -126 48.5 -241t130.5 -199t196.5 -134 t240.5 -50q170 0 312.5 84.5t224.5 228t82 311.5t-82 312t-225 229.5t-312 85.5t-311 -85.5t-223.5 -229.5t-81.5 -312zM502 1817q0 28 41 69q52 49 137 49q67 0 151 -51q32 -20 45.5 -28.5t38.5 -17.5t48 -9q33 0 58 13t36.5 29t24.5 29t24 13q15 0 25 -10t10 -25 q0 -35 -43 -72q-50 -47 -137 -47q-26 0 -55.5 10t-45 18.5t-47.5 27.5q-80 53 -133 53q-33 0 -58 -13.5t-36 -29.5t-24.5 -29.5t-26.5 -13.5q-14 0 -23.5 10t-9.5 25z" />
<glyph unicode="&#xd6;" horiz-adv-x="1648" d="M104 694q0 117 36.5 226.5t103 198t154.5 155t198 103t227 36.5q146 0 279.5 -57t230 -153.5t154 -230t57.5 -278.5t-57.5 -277t-154 -228t-230 -152.5t-279.5 -56.5t-279.5 56.5t-229.5 152t-153 228t-57 277.5zM207 694q0 -126 48.5 -241t130.5 -199t196.5 -134 t240.5 -50q170 0 312.5 84.5t224.5 228t82 311.5t-82 312t-225 229.5t-312 85.5t-311 -85.5t-223.5 -229.5t-81.5 -312zM596 1790q0 23 16 39t41 16q24 0 41 -16t17 -39q0 -24 -17 -40.5t-41 -16.5q-25 0 -41 16t-16 41zM936 1790q0 23 16 39t41 16q23 0 39.5 -16t16.5 -39 q0 -24 -16.5 -40.5t-39.5 -16.5q-25 0 -41 16t-16 41z" />
<glyph unicode="&#xd8;" horiz-adv-x="1648" d="M104 694q0 145 57.5 278.5t154 230t230 153.5t279.5 57q243 0 439 -153l110 129q14 14 29 14q13 0 23 -10.5t10 -24.5q0 -18 -11 -25l-108 -126q106 -100 166.5 -236t60.5 -287q0 -116 -36.5 -225t-103 -196.5t-155 -154t-198 -102.5t-226.5 -36q-252 0 -442 151 l-113 -131q-11 -14 -28 -14q-14 0 -23.5 9t-9.5 25q0 15 10 25l111 129q-106 99 -166 234t-60 286zM207 694q0 -127 49.5 -242.5t138.5 -201.5l803 936q-164 135 -375 135q-167 0 -309.5 -86t-224.5 -230.5t-82 -310.5zM449 203q161 -133 374 -133q126 0 241 50.5t197.5 135 t131.5 199.5t49 239q0 126 -51.5 242.5t-141.5 202.5z" />
<glyph unicode="&#xd9;" horiz-adv-x="1476" d="M158 551v815q0 19 14 33t35 14q20 0 34.5 -14t14.5 -33v-801q0 -230 121 -360q131 -137 360 -137q232 0 363 137q121 130 121 360v801q0 19 14.5 33t34.5 14q21 0 35 -14t14 -33v-815q0 -252 -137 -401q-156 -170 -445 -170q-286 0 -442 170q-137 149 -137 401zM600 1952 q0 15 11 26t28 11q22 0 39 -31l180 -318q8 -13 8 -26q0 -12 -9 -20.5t-21 -8.5q-22 0 -37 27l-187 307q-12 19 -12 33z" />
<glyph unicode="&#xda;" horiz-adv-x="1476" d="M158 551v815q0 19 14 33t35 14q20 0 34.5 -14t14.5 -33v-801q0 -230 121 -360q131 -137 360 -137q232 0 363 137q121 130 121 360v801q0 19 14.5 33t34.5 14q21 0 35 -14t14 -33v-815q0 -252 -137 -401q-156 -170 -445 -170q-286 0 -442 170q-137 149 -137 401zM604 1614 q0 6 8 26l181 318q14 31 38 31q17 0 28 -11t11 -26q0 -14 -12 -33l-186 -307q-15 -27 -35 -27q-14 0 -23.5 8.5t-9.5 20.5z" />
<glyph unicode="&#xdb;" horiz-adv-x="1476" d="M158 551v815q0 19 14 33t35 14q20 0 34.5 -14t14.5 -33v-801q0 -230 121 -360q131 -137 360 -137q232 0 363 137q121 130 121 360v801q0 19 14.5 33t34.5 14q21 0 35 -14t14 -33v-815q0 -252 -137 -401q-156 -170 -445 -170q-286 0 -442 170q-137 149 -137 401zM418 1651 q0 16 14 30l270 287q15 19 35 19q22 0 37 -19l268 -287q17 -17 17 -30q0 -15 -10.5 -25t-24.5 -10q-15 0 -27 12l-260 275l-260 -275q-12 -12 -26 -12t-23.5 10t-9.5 25z" />
<glyph unicode="&#xdc;" horiz-adv-x="1476" d="M158 551v815q0 19 14 33t35 14q20 0 34.5 -14t14.5 -33v-801q0 -230 121 -360q131 -137 360 -137q232 0 363 137q121 130 121 360v801q0 19 14.5 33t34.5 14q21 0 35 -14t14 -33v-815q0 -252 -137 -401q-156 -170 -445 -170q-286 0 -442 170q-137 149 -137 401zM504 1790 q0 23 16 39t41 16q23 0 40 -16t17 -39q0 -24 -16.5 -40.5t-40.5 -16.5q-25 0 -41 16t-16 41zM844 1790q0 23 16 39t41 16q23 0 39 -16t16 -39q0 -25 -16 -41t-39 -16q-25 0 -41 16t-16 41z" />
<glyph unicode="&#xdd;" horiz-adv-x="1157" d="M4 1368q0 19 13.5 32t33.5 13q27 0 47 -29l480 -659l483 659q23 29 45 29q20 0 33.5 -13.5t13.5 -33.5q0 -19 -12 -37l-514 -700v-602q0 -19 -14.5 -33t-34.5 -14q-21 0 -35.5 14t-14.5 33v602l-512 700q-12 15 -12 39zM446 1614q0 11 9 26l180 318q17 31 39 31 q17 0 28 -11t11 -26q0 -12 -13 -33l-186 -307q-15 -27 -35 -27q-14 0 -23.5 8.5t-9.5 20.5z" />
<glyph unicode="&#xde;" horiz-adv-x="1261" d="M160 -260v1626q0 19 14.5 33t34.5 14q21 0 35 -14t14 -33v-272h449q194 0 315 -95q162 -124 162 -350q0 -114 -45.5 -207.5t-128.5 -152.5q-115 -84 -334 -84h-418v-465q0 -19 -14 -33t-35 -14q-20 0 -34.5 14t-14.5 33zM258 291h401q188 0 285 67q65 46 102 122t37 169 q0 185 -129 281q-101 78 -264 78h-432v-717z" />
<glyph unicode="&#xdf;" horiz-adv-x="1105" d="M156 -86v1102q0 193 93 295t265 102q165 0 258.5 -72t93.5 -217q0 -57 -21.5 -102t-54 -70.5t-70 -47t-70 -34.5t-54 -29t-21.5 -34q0 -21 23 -40t51.5 -31t75 -31.5t74.5 -34.5q95 -51 151 -126.5t56 -193.5q0 -157 -109 -263.5t-281 -106.5q-153 0 -254 53 q-79 42 -79 80q0 41 39 41q9 0 18.5 -5t27 -17.5t29.5 -20.5q85 -52 217 -52q134 0 219 82t85 205q0 98 -47.5 157t-127.5 99q-25 13 -70 32t-72 32t-56.5 33t-43.5 45t-14 57q0 28 21.5 50.5t53.5 36t69.5 33.5t69.5 41.5t53.5 61.5t21.5 92q0 112 -69.5 167.5t-192.5 55.5 q-266 0 -266 -323v-1102q0 -18 -14 -30.5t-33 -12.5t-32 12t-13 31z" />
<glyph unicode="&#xe0;" horiz-adv-x="962" d="M96 244q0 176 197 245q58 21 142 35t139.5 19t156.5 12v31q0 133 -57 202q-59 72 -193 72q-111 0 -205 -41q-22 -10 -44 -22t-33 -17.5t-21 -5.5q-14 0 -24.5 10t-10.5 27q0 20 22.5 37t65.5 37q112 51 256 51q177 0 261 -96q73 -89 73 -254v-563q0 -19 -13 -31t-32 -12 t-32 12t-13 31v26q-135 -69 -293 -69q-62 0 -120.5 15.5t-109 45.5t-81.5 83t-31 120zM180 250q0 -99 83.5 -149t197.5 -50q142 0 270 76v356q-6 0 -53.5 -2.5t-64.5 -4t-60.5 -5t-69 -7.5t-59.5 -11t-62 -15q-86 -27 -134 -71.5t-48 -116.5zM354 1536q0 15 11 26t28 11 q22 0 39 -31l180 -317q9 -15 9 -27t-9.5 -20.5t-21.5 -8.5q-22 0 -37 27l-186 307q-13 21 -13 33z" />
<glyph unicode="&#xe1;" horiz-adv-x="962" d="M96 244q0 176 197 245q58 21 142 35t139.5 19t156.5 12v31q0 133 -57 202q-59 72 -193 72q-111 0 -205 -41q-22 -10 -44 -22t-33 -17.5t-21 -5.5q-14 0 -24.5 10t-10.5 27q0 20 22.5 37t65.5 37q112 51 256 51q177 0 261 -96q73 -89 73 -254v-563q0 -19 -13 -31t-32 -12 t-32 12t-13 31v26q-135 -69 -293 -69q-62 0 -120.5 15.5t-109 45.5t-81.5 83t-31 120zM180 250q0 -99 83.5 -149t197.5 -50q142 0 270 76v356q-6 0 -53.5 -2.5t-64.5 -4t-60.5 -5t-69 -7.5t-59.5 -11t-62 -15q-86 -27 -134 -71.5t-48 -116.5zM348 1198q0 7 8 27l181 317 q14 31 38 31q17 0 28 -11t11 -26q0 -14 -12 -33l-186 -307q-15 -27 -35 -27q-14 0 -23.5 8.5t-9.5 20.5z" />
<glyph unicode="&#xe2;" horiz-adv-x="962" d="M96 244q0 176 197 245q58 21 142 35t139.5 19t156.5 12v31q0 133 -57 202q-59 72 -193 72q-111 0 -205 -41q-22 -10 -44 -22t-33 -17.5t-21 -5.5q-14 0 -24.5 10t-10.5 27q0 20 22.5 37t65.5 37q112 51 256 51q177 0 261 -96q73 -89 73 -254v-563q0 -19 -13 -31t-32 -12 t-32 12t-13 31v26q-135 -69 -293 -69q-62 0 -120.5 15.5t-109 45.5t-81.5 83t-31 120zM164 1235q0 17 14 31l271 286q15 19 34 19q22 0 37 -19l268 -286q17 -17 17 -31q0 -15 -10.5 -25t-24.5 -10q-15 0 -27 12l-260 275l-260 -275q-12 -12 -26 -12t-23.5 10t-9.5 25z M180 250q0 -99 83.5 -149t197.5 -50q142 0 270 76v356q-6 0 -53.5 -2.5t-64.5 -4t-60.5 -5t-69 -7.5t-59.5 -11t-62 -15q-86 -27 -134 -71.5t-48 -116.5z" />
<glyph unicode="&#xe3;" horiz-adv-x="962" d="M96 244q0 176 197 245q58 21 142 35t139.5 19t156.5 12v31q0 133 -57 202q-59 72 -193 72q-111 0 -205 -41q-22 -10 -44 -22t-33 -17.5t-21 -5.5q-14 0 -24.5 10t-10.5 27q0 20 22.5 37t65.5 37q112 51 256 51q177 0 261 -96q73 -89 73 -254v-563q0 -19 -13 -31t-32 -12 t-32 12t-13 31v26q-135 -69 -293 -69q-62 0 -120.5 15.5t-109 45.5t-81.5 83t-31 120zM160 1335q0 29 41 70q52 49 137 49q67 0 151 -51q32 -20 45.5 -28.5t38.5 -17.5t48 -9q33 0 58 13t36.5 29t24.5 29t24 13q15 0 25 -10t10 -25q0 -35 -43 -72q-50 -47 -138 -47 q-27 0 -55.5 9.5t-44 18t-47.5 27.5q-80 53 -133 53q-33 0 -58 -13.5t-36 -29.5t-24.5 -29.5t-26.5 -13.5q-14 0 -23.5 10t-9.5 25zM180 250q0 -99 83.5 -149t197.5 -50q142 0 270 76v356q-6 0 -53.5 -2.5t-64.5 -4t-60.5 -5t-69 -7.5t-59.5 -11t-62 -15q-86 -27 -134 -71.5 t-48 -116.5z" />
<glyph unicode="&#xe4;" horiz-adv-x="962" d="M96 244q0 176 197 245q58 21 142 35t139.5 19t156.5 12v31q0 133 -57 202q-59 72 -193 72q-111 0 -205 -41q-22 -10 -44 -22t-33 -17.5t-21 -5.5q-14 0 -24.5 10t-10.5 27q0 20 22.5 37t65.5 37q112 51 256 51q177 0 261 -96q73 -89 73 -254v-563q0 -19 -13 -31t-32 -12 t-32 12t-13 31v26q-135 -69 -293 -69q-62 0 -120.5 15.5t-109 45.5t-81.5 83t-31 120zM180 250q0 -99 83.5 -149t197.5 -50q142 0 270 76v356q-6 0 -53.5 -2.5t-64.5 -4t-60.5 -5t-69 -7.5t-59.5 -11t-62 -15q-86 -27 -134 -71.5t-48 -116.5zM256 1374q0 24 16 40t41 16 q23 0 40.5 -16.5t17.5 -39.5q0 -24 -17 -40.5t-41 -16.5q-25 0 -41 16t-16 41zM596 1374q0 24 16 40t41 16q23 0 39.5 -16.5t16.5 -39.5q0 -24 -16.5 -40.5t-39.5 -16.5q-25 0 -41 16t-16 41z" />
<glyph unicode="&#xe5;" horiz-adv-x="962" d="M96 244q0 176 197 245q58 21 142 35t139.5 19t156.5 12v31q0 133 -57 202q-59 72 -193 72q-111 0 -205 -41q-22 -10 -44 -22t-33 -17.5t-21 -5.5q-14 0 -24.5 10t-10.5 27q0 20 22.5 37t65.5 37q112 51 256 51q177 0 261 -96q73 -89 73 -254v-563q0 -19 -13 -31t-32 -12 t-32 12t-13 31v26q-135 -69 -293 -69q-62 0 -120.5 15.5t-109 45.5t-81.5 83t-31 120zM180 250q0 -99 83.5 -149t197.5 -50q142 0 270 76v356q-6 0 -53.5 -2.5t-64.5 -4t-60.5 -5t-69 -7.5t-59.5 -11t-62 -15q-86 -27 -134 -71.5t-48 -116.5zM264 1350q0 96 68 163.5 t164 67.5q95 0 162 -67t67 -164t-67 -164.5t-162 -67.5q-96 0 -164 68t-68 164zM315 1350q0 -75 53.5 -128t127.5 -53t126 52.5t52 128.5q0 75 -52.5 128.5t-125.5 53.5q-74 0 -127.5 -53.5t-53.5 -128.5z" />
<glyph unicode="&#xe6;" horiz-adv-x="1675" d="M96 240q0 58 27 101.5t76.5 73.5t126 49.5t167.5 29.5t209 14v78q0 139 -55 207q-59 71 -182 71q-103 0 -193 -39q-21 -9 -42 -21t-32 -18t-20 -6q-15 0 -26 10.5t-11 24.5q0 20 22.5 36t63.5 34q104 51 244 51q147 0 219 -80q57 -64 76 -168q26 63 90 131 q117 117 297 117q194 0 315 -131q111 -117 111 -307q0 -49 -53 -49h-731q3 -158 86 -261q109 -137 301 -137q143 0 254 62q12 7 24.5 15.5t19 13t14 7.5t13.5 3q13 0 23 -10.5t10 -24.5q0 -31 -57 -60q-131 -77 -305 -77q-235 0 -375 170q-163 -170 -373 -170 q-154 0 -244 75t-90 185zM182 242q0 -79 70.5 -136t198.5 -57q91 0 174 42t145 110q-65 108 -65 248q-270 -8 -396.5 -57t-126.5 -150zM795 506h698q-3 157 -88 252q-43 49 -108 78.5t-142 29.5q-176 0 -276 -121q-81 -97 -84 -239z" />
<glyph unicode="&#xe7;" horiz-adv-x="954" d="M98 459q0 182 109 307q67 81 166 124.5t211 43.5q128 0 233 -51q51 -25 51 -58q0 -14 -11 -26.5t-26 -12.5q-7 0 -13.5 2t-10.5 3.5t-17 8.5t-22 11q-76 39 -182 39q-90 0 -169.5 -35t-135.5 -98q-91 -109 -91 -260q0 -180 107 -287q111 -111 289 -111q119 0 188 35 q9 4 22 11t17 8.5t11 3.5t14 2q13 0 23.5 -11.5t10.5 -25.5q0 -33 -59 -59q-87 -40 -209 -43v-60q77 -2 129.5 -38t52.5 -103q0 -45 -22 -79t-57.5 -52t-74 -26.5t-79.5 -8.5q-38 0 -68 6q-24 6 -24 29q0 10 7.5 18t18.5 8q7 0 29 -3t43 -3q64 0 112 27t48 84 q0 49 -39.5 72.5t-95.5 23.5q-40 0 -37 41l4 66q-203 9 -324 133q-129 132 -129 344z" />
<glyph unicode="&#xe8;" horiz-adv-x="1073" d="M98 471q0 197 119 328q121 137 334 137q194 0 315 -131q111 -120 111 -307q0 -24 -13.5 -41t-39.5 -17h-731q6 -152 86 -247q108 -136 301 -136q143 0 254 62q12 7 24.5 15.5t18.5 12t13 6.5t13 3q14 0 24.5 -12.5t10.5 -26.5q0 -28 -55 -60q-135 -77 -308 -77 q-229 0 -364 157q-113 132 -113 334zM193 510h696q-3 154 -88 242q-93 106 -250 106q-180 0 -275 -119q-76 -89 -83 -229zM401 1536q0 15 11 26t28 11q22 0 39 -31l180 -317q9 -15 9 -27t-9.5 -20.5t-21.5 -8.5q-22 0 -37 27l-186 307q-13 21 -13 33z" />
<glyph unicode="&#xe9;" horiz-adv-x="1073" d="M98 471q0 197 119 328q121 137 334 137q194 0 315 -131q111 -120 111 -307q0 -24 -13.5 -41t-39.5 -17h-731q6 -152 86 -247q108 -136 301 -136q143 0 254 62q12 7 24.5 15.5t18.5 12t13 6.5t13 3q14 0 24.5 -12.5t10.5 -26.5q0 -28 -55 -60q-135 -77 -308 -77 q-229 0 -364 157q-113 132 -113 334zM193 510h696q-3 154 -88 242q-93 106 -250 106q-180 0 -275 -119q-76 -89 -83 -229zM397 1198q0 4 9 27l180 317q14 31 39 31q17 0 28 -11t11 -26q0 -12 -13 -33l-186 -307q-15 -27 -35 -27q-14 0 -23.5 8.5t-9.5 20.5z" />
<glyph unicode="&#xea;" horiz-adv-x="1073" d="M98 471q0 197 119 328q121 137 334 137q194 0 315 -131q111 -120 111 -307q0 -24 -13.5 -41t-39.5 -17h-731q6 -152 86 -247q108 -136 301 -136q143 0 254 62q12 7 24.5 15.5t18.5 12t13 6.5t13 3q14 0 24.5 -12.5t10.5 -26.5q0 -28 -55 -60q-135 -77 -308 -77 q-229 0 -364 157q-113 132 -113 334zM193 510h696q-3 154 -88 242q-93 106 -250 106q-180 0 -275 -119q-76 -89 -83 -229zM211 1235q0 17 14 31l271 286q15 19 34 19q22 0 37 -19l269 -286q16 -16 16 -31t-10.5 -25t-24.5 -10t-26 12l-261 275l-260 -275q-12 -12 -26 -12 t-23.5 10t-9.5 25z" />
<glyph unicode="&#xeb;" horiz-adv-x="1073" d="M98 471q0 197 119 328q121 137 334 137q194 0 315 -131q111 -120 111 -307q0 -24 -13.5 -41t-39.5 -17h-731q6 -152 86 -247q108 -136 301 -136q143 0 254 62q12 7 24.5 15.5t18.5 12t13 6.5t13 3q14 0 24.5 -12.5t10.5 -26.5q0 -28 -55 -60q-135 -77 -308 -77 q-229 0 -364 157q-113 132 -113 334zM193 510h696q-3 154 -88 242q-93 106 -250 106q-180 0 -275 -119q-76 -89 -83 -229zM303 1374q0 24 16.5 40t40.5 16q23 0 40.5 -16.5t17.5 -39.5q0 -24 -17 -40.5t-41 -16.5q-25 0 -41 16t-16 41zM643 1374q0 24 16.5 40t40.5 16 q23 0 39.5 -16.5t16.5 -39.5q0 -24 -16 -40.5t-40 -16.5q-25 0 -41 16t-16 41z" />
<glyph unicode="&#xec;" horiz-adv-x="401" d="M70 1536q0 15 11 26t28 11q21 0 38 -31l181 -317q8 -13 8 -27q0 -12 -9.5 -20.5t-21.5 -8.5q-22 0 -37 27l-186 307q-12 19 -12 33zM156 23v870q0 19 13 31t32 12t32 -12t13 -31v-870q0 -19 -13 -31t-32 -12t-32 12t-13 31z" />
<glyph unicode="&#xed;" horiz-adv-x="401" d="M72 1198q0 7 8 27l180 317q14 31 39 31q17 0 28 -11t11 -26q0 -14 -12 -33l-187 -307q-15 -27 -35 -27q-13 0 -22.5 8.5t-9.5 20.5zM156 23v870q0 19 13 31t32 12t32 -12t13 -31v-870q0 -19 -13 -31t-32 -12t-32 12t-13 31z" />
<glyph unicode="&#xee;" horiz-adv-x="401" d="M-117 1235q0 16 15 31l270 286q15 19 35 19q22 0 37 -19l268 -286q16 -16 16 -31t-10.5 -25t-24.5 -10t-26 12l-260 275l-260 -275q-12 -12 -27 -12q-14 0 -23.5 10t-9.5 25zM156 23v870q0 19 13 31t32 12t32 -12t13 -31v-870q0 -19 -13 -31t-32 -12t-32 12t-13 31z" />
<glyph unicode="&#xef;" horiz-adv-x="401" d="M-23 1374q0 23 16.5 39.5t41.5 16.5q23 0 40 -16.5t17 -39.5q0 -24 -16.5 -40.5t-40.5 -16.5q-25 0 -41.5 16t-16.5 41zM156 23v870q0 19 13 31t32 12t32 -12t13 -31v-870q0 -19 -13 -31t-32 -12t-32 12t-13 31zM317 1374q0 23 16.5 39.5t41.5 16.5q23 0 39 -16.5 t16 -39.5q0 -25 -16 -41t-39 -16q-25 0 -41.5 16t-16.5 41z" />
<glyph unicode="&#xf0;" horiz-adv-x="1038" d="M98 422q0 169 111 280q60 60 138.5 92.5t158.5 32.5q159 0 297 -94q-72 239 -264 445l-195 -152q-23 -14 -33 -14q-12 0 -21 10t-9 22q0 17 18 31l190 146q-88 84 -129 114q-28 20 -28 37q0 18 12.5 29.5t30.5 11.5q23 0 94 -61q46 -40 86 -80l168 129q15 12 29 12 q13 0 20.5 -9t7.5 -22q0 -18 -18 -30l-160 -123q153 -162 244.5 -363.5t91.5 -410.5q0 -228 -122 -351.5t-304 -123.5q-162 0 -274 98q-67 59 -103.5 147.5t-36.5 196.5zM184 422q0 -187 109 -285q85 -82 219 -82q146 0 244 103t98 297q0 88 -23 196q-150 107 -313 107 q-66 0 -131.5 -28t-114.5 -77q-88 -88 -88 -231z" />
<glyph unicode="&#xf1;" horiz-adv-x="1110" d="M156 23v870q0 19 13 31t32 12t32 -12t13 -31v-162q48 98 138 151.5t210 53.5q169 0 264 -80q111 -99 111 -317v-516q0 -19 -13 -31t-32 -12t-31 12t-12 31v493q0 190 -88 270q-74 68 -213 68q-188 0 -277 -162q-57 -108 -57 -231v-438q0 -19 -13 -31t-32 -12t-32 12 t-13 31zM207 1335q0 29 41 70q52 49 137 49q68 0 152 -51q66 -43 96 -50q17 -5 35 -5q33 0 58 13t36.5 29t24.5 29t24 13q15 0 25 -10t10 -25q0 -35 -43 -72q-50 -47 -137 -47q-27 0 -55.5 9.5t-45 18.5t-47.5 27q-80 53 -133 53q-33 0 -58 -13.5t-36 -29.5t-24.5 -29.5 t-26.5 -13.5q-14 0 -23.5 10t-9.5 25z" />
<glyph unicode="&#xf2;" horiz-adv-x="1163" d="M98 459q0 97 34.5 183.5t96.5 150.5q137 143 353 143q213 0 350 -143q62 -64 96.5 -150.5t34.5 -183.5q0 -202 -131 -336q-140 -143 -350 -143q-213 0 -353 143q-131 134 -131 336zM188 459q0 -164 101 -279q115 -125 293 -125q175 0 290 125q103 118 103 279 q0 158 -103 276q-117 127 -290 127q-176 0 -293 -127q-101 -115 -101 -276zM446 1536q0 15 11 26t28 11q22 0 39 -31l181 -317q8 -13 8 -27q0 -12 -9.5 -20.5t-21.5 -8.5q-22 0 -37 27l-186 307q-13 21 -13 33z" />
<glyph unicode="&#xf3;" horiz-adv-x="1163" d="M98 459q0 97 34.5 183.5t96.5 150.5q137 143 353 143q213 0 350 -143q62 -64 96.5 -150.5t34.5 -183.5q0 -202 -131 -336q-140 -143 -350 -143q-213 0 -353 143q-131 134 -131 336zM188 459q0 -164 101 -279q115 -125 293 -125q175 0 290 125q103 118 103 279 q0 158 -103 276q-117 127 -290 127q-176 0 -293 -127q-101 -115 -101 -276zM446 1198q0 4 9 27l180 317q14 31 39 31q17 0 28 -11t11 -26q0 -12 -13 -33l-186 -307q-15 -27 -35 -27q-14 0 -23.5 8.5t-9.5 20.5z" />
<glyph unicode="&#xf4;" horiz-adv-x="1163" d="M98 459q0 97 34.5 183.5t96.5 150.5q137 143 353 143q213 0 350 -143q62 -64 96.5 -150.5t34.5 -183.5q0 -202 -131 -336q-140 -143 -350 -143q-213 0 -353 143q-131 134 -131 336zM188 459q0 -164 101 -279q115 -125 293 -125q175 0 290 125q103 118 103 279 q0 158 -103 276q-117 127 -290 127q-176 0 -293 -127q-101 -115 -101 -276zM260 1235q0 17 14 31l271 286q15 19 35 19q21 0 36 -19l269 -286q16 -16 16 -31t-10.5 -25t-24.5 -10t-26 12l-260 275l-261 -275q-12 -12 -26 -12t-23.5 10t-9.5 25z" />
<glyph unicode="&#xf5;" horiz-adv-x="1163" d="M98 459q0 97 34.5 183.5t96.5 150.5q137 143 353 143q213 0 350 -143q62 -64 96.5 -150.5t34.5 -183.5q0 -202 -131 -336q-140 -143 -350 -143q-213 0 -353 143q-131 134 -131 336zM188 459q0 -164 101 -279q115 -125 293 -125q175 0 290 125q103 118 103 279 q0 158 -103 276q-117 127 -290 127q-176 0 -293 -127q-101 -115 -101 -276zM260 1335q0 29 41 70q52 49 137 49q68 0 152 -51q66 -43 96 -50q17 -5 35 -5q33 0 58 13t36.5 29t24.5 29t24 13q15 0 25 -10t10 -25q0 -35 -43 -72q-50 -47 -137 -47q-27 0 -55.5 9.5t-45 18.5 t-47.5 27q-80 53 -133 53q-33 0 -58 -13.5t-36 -29.5t-24.5 -29.5t-26.5 -13.5q-14 0 -23.5 10t-9.5 25z" />
<glyph unicode="&#xf6;" horiz-adv-x="1163" d="M98 459q0 97 34.5 183.5t96.5 150.5q137 143 353 143q213 0 350 -143q62 -64 96.5 -150.5t34.5 -183.5q0 -202 -131 -336q-140 -143 -350 -143q-213 0 -353 143q-131 134 -131 336zM188 459q0 -164 101 -279q115 -125 293 -125q175 0 290 125q103 118 103 279 q0 158 -103 276q-117 127 -290 127q-176 0 -293 -127q-101 -115 -101 -276zM352 1374q0 23 16.5 39.5t41.5 16.5q23 0 40 -16.5t17 -39.5q0 -24 -16.5 -40.5t-40.5 -16.5q-25 0 -41.5 16t-16.5 41zM692 1374q0 23 16.5 39.5t41.5 16.5q23 0 39 -16.5t16 -39.5q0 -25 -16 -41 t-39 -16q-25 0 -41.5 16t-16.5 41z" />
<glyph unicode="&#xf8;" horiz-adv-x="1181" d="M98 459q0 97 34.5 183.5t96.5 150.5q137 143 353 143q169 0 301 -98l73 86q9 12 21 12q11 0 19 -7.5t8 -19.5q0 -9 -9 -18l-75 -88l12 -10q62 -64 96.5 -150.5t34.5 -183.5q0 -202 -131 -336q-140 -143 -350 -143q-167 0 -293 90l-68 -78q-9 -12 -22 -12q-10 0 -17.5 7.5 t-7.5 18.5q0 7 8 19l68 77q-12 9 -21 21q-131 134 -131 336zM188 459q0 -164 101 -279q4 -6 14 -16l526 612q-110 86 -247 86q-176 0 -293 -127q-101 -115 -101 -276zM342 131q102 -76 240 -76q175 0 290 125q103 118 103 279q0 158 -103 276l-6 6z" />
<glyph unicode="&#xf9;" horiz-adv-x="1095" d="M141 383v510q0 19 13 31t32 12t32 -12t13 -31v-498q0 -128 43 -207q32 -57 102 -91t171 -34q102 0 172 34t102 91q24 42 33.5 88t9.5 119v498q0 19 13 31t32 12t32 -12t13 -31v-510q0 -85 -14 -142.5t-47 -109.5q-43 -72 -132.5 -111.5t-213.5 -39.5q-123 0 -212 40 t-132 111q-33 52 -47.5 109.5t-14.5 142.5zM414 1536q0 15 11 26t28 11q22 0 39 -31l180 -317q8 -13 8 -27q0 -12 -9.5 -20.5t-21.5 -8.5q-22 0 -37 27l-186 307q-12 19 -12 33z" />
<glyph unicode="&#xfa;" horiz-adv-x="1095" d="M141 383v510q0 19 13 31t32 12t32 -12t13 -31v-498q0 -128 43 -207q32 -57 102 -91t171 -34q102 0 172 34t102 91q24 42 33.5 88t9.5 119v498q0 19 13 31t32 12t32 -12t13 -31v-510q0 -85 -14 -142.5t-47 -109.5q-43 -72 -132.5 -111.5t-213.5 -39.5q-123 0 -212 40 t-132 111q-33 52 -47.5 109.5t-14.5 142.5zM414 1198q0 7 8 27l180 317q14 31 39 31q17 0 28 -11t11 -26q0 -14 -12 -33l-187 -307q-15 -27 -35 -27q-13 0 -22.5 8.5t-9.5 20.5z" />
<glyph unicode="&#xfb;" horiz-adv-x="1095" d="M141 383v510q0 19 13 31t32 12t32 -12t13 -31v-498q0 -128 43 -207q32 -57 102 -91t171 -34q102 0 172 34t102 91q24 42 33.5 88t9.5 119v498q0 19 13 31t32 12t32 -12t13 -31v-510q0 -85 -14 -142.5t-47 -109.5q-43 -72 -132.5 -111.5t-213.5 -39.5q-123 0 -212 40 t-132 111q-33 52 -47.5 109.5t-14.5 142.5zM227 1235q0 16 15 31l270 286q15 19 35 19q22 0 37 -19l268 -286q16 -16 16 -31t-10 -25t-24 -10q-15 0 -27 12l-260 275l-260 -275q-12 -12 -27 -12q-14 0 -23.5 10t-9.5 25z" />
<glyph unicode="&#xfc;" horiz-adv-x="1095" d="M141 383v510q0 19 13 31t32 12t32 -12t13 -31v-498q0 -128 43 -207q32 -57 102 -91t171 -34q102 0 172 34t102 91q24 42 33.5 88t9.5 119v498q0 19 13 31t32 12t32 -12t13 -31v-510q0 -85 -14 -142.5t-47 -109.5q-43 -72 -132.5 -111.5t-213.5 -39.5q-123 0 -212 40 t-132 111q-33 52 -47.5 109.5t-14.5 142.5zM322 1374q0 24 16 40t41 16q23 0 40 -16.5t17 -39.5q0 -24 -16.5 -40.5t-40.5 -16.5q-25 0 -41 16t-16 41zM662 1374q0 24 16 40t41 16q23 0 39 -16.5t16 -39.5q0 -25 -16 -41t-39 -16q-25 0 -41 16t-16 41z" />
<glyph unicode="&#xfd;" horiz-adv-x="899" d="M12 889q0 20 14.5 33.5t34.5 13.5q32 0 45 -31l359 -842l330 836q15 37 45 37q19 0 33 -12.5t14 -32.5q0 -17 -13 -47l-358 -891q-81 -206 -183 -315t-249 -109q-20 0 -32.5 13t-12.5 32t12.5 32t32.5 13q115 0 191 82.5t145 249.5l-397 901q-11 28 -11 37zM315 1198 q0 4 9 27l180 317q14 31 39 31q17 0 28 -11t11 -26q0 -12 -13 -33l-186 -307q-15 -27 -35 -27q-14 0 -23.5 8.5t-9.5 20.5z" />
<glyph unicode="&#xfe;" horiz-adv-x="1052" d="M156 -430v1798q0 19 13 32t32 13t32 -13t13 -32v-444q106 12 174 12q241 0 383 -127q149 -130 149 -348q0 -211 -118 -342q-67 -70 -157.5 -104.5t-178.5 -34.5q-146 0 -252 53v-463q0 -19 -13 -31t-32 -12t-32 12t-13 31zM246 109q59 -30 113 -43t133 -13q69 0 141 27.5 t127 85.5q102 105 102 295q0 183 -114 291q-119 110 -322 110q-103 0 -180 -14v-739z" />
<glyph unicode="&#xff;" horiz-adv-x="899" d="M12 889q0 20 14.5 33.5t34.5 13.5q32 0 45 -31l359 -842l330 836q15 37 45 37q19 0 33 -12.5t14 -32.5q0 -17 -13 -47l-358 -891q-81 -206 -183 -315t-249 -109q-20 0 -32.5 13t-12.5 32t12.5 32t32.5 13q115 0 191 82.5t145 249.5l-397 901q-11 28 -11 37zM221 1374 q0 23 16.5 39.5t41.5 16.5q23 0 40 -16.5t17 -39.5q0 -24 -16.5 -40.5t-40.5 -16.5q-25 0 -41.5 16t-16.5 41zM561 1374q0 24 16.5 40t40.5 16q23 0 39.5 -16.5t16.5 -39.5q0 -24 -16 -40.5t-40 -16.5q-25 0 -41 16t-16 41z" />
<glyph unicode="&#x131;" horiz-adv-x="401" d="M156 23v870q0 19 13 31t32 12t32 -12t13 -31v-870q0 -19 -13 -31t-32 -12t-32 12t-13 31z" />
<glyph unicode="&#x152;" horiz-adv-x="2490" d="M104 694q0 146 57.5 279t154 230t230 154.5t279.5 57.5q195 0 360.5 -98t260.5 -262v291q0 21 14 35t35 14h889q17 0 29 -13t12 -30q0 -19 -12 -31t-29 -12h-840v-568h733q18 0 30.5 -12.5t12.5 -30.5q0 -19 -12 -32t-31 -13h-733v-567h840q17 0 29 -12t12 -31t-12 -31 t-29 -12h-889q-21 0 -35 14t-14 33v287q-96 -161 -261 -257.5t-360 -96.5t-361 95.5t-263 260t-97 358.5zM207 694q0 -167 82 -310.5t224 -228.5t310 -85q126 0 241 50.5t197.5 135t131.5 199.5t49 239t-49 239.5t-131 201t-197.5 137t-241.5 51.5q-167 0 -309.5 -86.5 t-224.5 -231.5t-82 -311z" />
<glyph unicode="&#x153;" horiz-adv-x="1949" d="M98 459q0 97 34.5 183.5t96.5 150.5q137 143 353 143q213 0 350 -143q55 -58 82 -119q29 68 80 125q121 137 333 137q195 0 316 -131q110 -119 110 -307q0 -24 -13.5 -41t-39.5 -17h-731q6 -152 86 -247q113 -136 301 -136q143 0 254 62q11 7 24 15.5t19 12t13.5 6.5 t13.5 3q14 0 24.5 -12.5t10.5 -26.5q0 -27 -56 -60q-135 -77 -307 -77q-230 0 -365 157q-41 46 -69 111q-37 -76 -86 -125q-140 -143 -350 -143q-213 0 -353 143q-131 134 -131 336zM188 459q0 -164 101 -279q115 -125 293 -125q175 0 290 125q103 118 103 291 q0 85 -26.5 146.5t-76.5 117.5q-117 127 -290 127q-176 0 -293 -127q-101 -115 -101 -276zM1069 510h696q-3 147 -88 242q-99 106 -250 106q-179 0 -274 -119q-37 -43 -59 -103.5t-25 -125.5z" />
<glyph unicode="&#x178;" horiz-adv-x="1157" d="M4 1368q0 19 13.5 32t33.5 13q27 0 47 -29l480 -659l483 659q23 29 45 29q20 0 33.5 -13.5t13.5 -33.5q0 -19 -12 -37l-514 -700v-602q0 -19 -14.5 -33t-34.5 -14q-21 0 -35.5 14t-14.5 33v602l-512 700q-12 15 -12 39zM350 1855q0 23 16.5 39.5t41.5 16.5q23 0 40 -16.5 t17 -39.5q0 -24 -16.5 -40.5t-40.5 -16.5q-25 0 -41.5 16t-16.5 41zM690 1855q0 23 16.5 39.5t41.5 16.5q23 0 39 -16.5t16 -39.5q0 -25 -16 -41t-39 -16q-25 0 -41.5 16t-16.5 41z" />
<glyph unicode="&#x192;" d="M-63 -432q0 15 10.5 25t27.5 10q6 0 41 -13q25 -10 76 -10q97 0 149.5 58.5t73.5 171.5l185 1038h-113q-14 0 -24.5 10t-10.5 25q0 13 11 24t24 11h125l37 198q24 138 93 217.5t204 79.5q98 0 170 -37q49 -25 49 -57q0 -15 -11 -25t-28 -10q-6 0 -11.5 2t-10 4t-13 7 t-14.5 8q-52 32 -125 32q-99 0 -147 -56.5t-70 -172.5l-35 -190h295q13 0 23 -10.5t10 -24.5q0 -15 -9.5 -25t-23.5 -10h-307l-187 -1047q-54 -299 -309 -299q-54 0 -100 15q-55 16 -55 51z" />
<glyph unicode="&#x2c6;" horiz-adv-x="802" d="M82 1235q0 17 14 31l271 286q15 19 34 19q22 0 37 -19l269 -286q16 -16 16 -31t-10.5 -25t-24.5 -10t-26 12l-261 275l-260 -275q-12 -12 -26 -12t-23.5 10t-9.5 25z" />
<glyph unicode="&#x2da;" horiz-adv-x="802" d="M170 1350q0 96 67.5 163.5t163.5 67.5q95 0 162.5 -67.5t67.5 -163.5q0 -97 -67.5 -164.5t-162.5 -67.5t-163 68t-68 164zM221 1350q0 -75 53 -128t127 -53t126.5 52.5t52.5 128.5q0 75 -52.5 128.5t-126.5 53.5t-127 -53.5t-53 -128.5z" />
<glyph unicode="&#x2dc;" horiz-adv-x="802" d="M82 1335q0 29 41 70q52 49 137 49q68 0 152 -51q66 -43 96 -50q17 -5 35 -5q33 0 58 13t36.5 29t24.5 29t24 13q15 0 25 -10t10 -25q0 -35 -43 -72q-50 -47 -137 -47q-27 0 -55.5 9.5t-45 18.5t-47.5 27q-80 53 -133 53q-33 0 -58 -13.5t-36 -29.5t-24.5 -29.5 t-26.5 -13.5q-14 0 -23.5 10t-9.5 25z" />
<glyph unicode="&#x401;" horiz-adv-x="1206" d="M160 47v1301q0 19 14.5 33t34.5 14h891q17 0 29 -13t12 -30q0 -19 -12 -31t-29 -12h-842v-568h735q18 0 30.5 -12.5t12.5 -30.5q0 -19 -12 -32t-31 -13h-735v-567h842q17 0 29 -12t12 -31t-12 -31t-29 -12h-891q-20 0 -34.5 14t-14.5 33zM377 1790q0 23 16 39t41 16 q24 0 41 -16t17 -39q0 -24 -17 -40.5t-41 -16.5q-25 0 -41 16t-16 41zM717 1790q0 23 16 39t41 16q23 0 39 -16t16 -39q0 -25 -16 -41t-39 -16q-25 0 -41 16t-16 41z" />
<glyph unicode="&#x402;" horiz-adv-x="1519" d="M-12 1352q0 18 12.5 30.5t30.5 12.5h1036q17 0 29 -13t12 -30q0 -19 -12 -31t-29 -12h-469v-596q45 98 129 157q103 66 246 66q179 0 280 -84q125 -104 125 -350v-47q0 -274 -96 -383q-33 -38 -77.5 -65t-88.5 -27q-49 0 -49 40q0 16 16.5 25t50.5 26t62 44q44 41 69 122 t25 185v67q0 214 -98 302q-77 71 -234 71q-202 0 -296 -143q-64 -94 -64 -223v-469q0 -19 -14.5 -33t-34.5 -14q-21 0 -35 14t-14 33v1282h-469q-19 0 -31 12t-12 31z" />
<glyph unicode="&#x403;" horiz-adv-x="1083" d="M160 27v1321q0 19 14.5 33t34.5 14h795q17 0 28.5 -12t11.5 -31t-11.5 -31t-28.5 -12h-746v-1282q0 -19 -14 -33t-35 -14q-20 0 -34.5 14t-14.5 33zM414 1614q0 6 8 26l180 318q14 31 39 31q17 0 28 -11t11 -26q0 -14 -12 -33l-187 -307q-15 -27 -35 -27q-13 0 -22.5 8.5 t-9.5 20.5z" />
<glyph unicode="&#x404;" horiz-adv-x="1355" d="M104 698q0 143 58 274t160 232q99 99 228 154t271 55q201 0 357 -78q45 -21 66.5 -39.5t21.5 -42.5q0 -19 -13 -32t-32 -13q-13 0 -32.5 12t-54 32t-73.5 34q-111 39 -240 39q-120 0 -229.5 -47t-194.5 -131q-81 -81 -130.5 -187t-55.5 -219h840q18 0 30.5 -12.5 t12.5 -30.5q0 -19 -12 -31t-31 -12h-838q12 -261 193 -428q176 -159 417 -159q128 0 240 38q41 15 76 35t54 31.5t32 11.5q19 0 32 -13t13 -32q0 -24 -21.5 -42.5t-66.5 -39.5q-154 -77 -359 -77q-291 0 -495 188q-106 97 -165 232t-59 298z" />
<glyph unicode="&#x405;" horiz-adv-x="1116" d="M96 154q0 23 14 36t35 13q14 0 28.5 -10t47.5 -32t76 -42q116 -53 260 -53q179 0 275 83t96 224q0 155 -178 237q-56 26 -197 66.5t-225 77.5q-226 98 -226 299q0 172 123.5 266t354.5 94q179 0 315 -61q36 -17 56 -33t20 -37q0 -19 -13 -32t-34 -13q-15 0 -56 21t-75 32 q-109 37 -218 37q-185 0 -277.5 -70t-92.5 -202q0 -84 54 -139.5t159 -96.5q39 -15 192 -57.5t232 -85.5q83 -43 136.5 -117t53.5 -178q0 -190 -128.5 -295.5t-346.5 -105.5q-117 0 -225.5 32t-186.5 78q-49 29 -49 64z" />
<glyph unicode="&#x406;" horiz-adv-x="419" d="M160 27v1339q0 19 14.5 33t34.5 14q21 0 35 -14t14 -33v-1339q0 -19 -14 -33t-35 -14q-20 0 -34.5 14t-14.5 33z" />
<glyph unicode="&#x407;" horiz-adv-x="419" d="M-12 1790q0 23 16 39t41 16q23 0 40 -16t17 -39q0 -24 -16.5 -40.5t-40.5 -16.5q-25 0 -41 16t-16 41zM160 27v1339q0 19 14.5 33t34.5 14q21 0 35 -14t14 -33v-1339q0 -19 -14 -33t-35 -14q-20 0 -34.5 14t-14.5 33zM328 1790q0 23 16 39t41 16q23 0 39 -16t16 -39 q0 -25 -16 -41t-39 -16q-25 0 -41 16t-16 41z" />
<glyph unicode="&#x408;" horiz-adv-x="1046" d="M23 143q0 20 13 32.5t32 12.5q20 0 36 -16q119 -104 265 -104q191 0 303 120q106 112 106 318v860q0 19 14 33t35 14t35.5 -14t14.5 -33v-864q0 -246 -142 -385q-71 -68 -166.5 -102.5t-197.5 -34.5q-87 0 -173 31.5t-153 88.5q-22 19 -22 43z" />
<glyph unicode="&#x409;" horiz-adv-x="2275" d="M35 29q0 16 14.5 37.5t40.5 62t45 90.5q68 166 89.5 378t19.5 493v258q0 19 14 33t35 14h883q20 0 34.5 -14t14.5 -33v-598h469q96 0 176.5 -18.5t150 -59t109 -115.5t39.5 -178q0 -99 -38 -174t-104.5 -118.5t-148.5 -65t-178 -21.5h-524q-21 0 -35.5 14t-14.5 33v1260 h-784v-217q0 -302 -26.5 -539t-102.5 -406q-48 -103 -73.5 -134t-53.5 -31q-22 0 -36.5 14.5t-14.5 34.5zM1225 82h469q170 0 273.5 76t103.5 221q0 143 -102.5 216t-278.5 73h-465v-586z" />
<glyph unicode="&#x40a;" horiz-adv-x="2347" d="M160 27v1339q0 19 14.5 33t34.5 14q21 0 35 -14t14 -33v-616h940v616q0 19 14 33t35 14t35 -14t14 -33v-616h471q75 0 141 -10.5t128.5 -37.5t106.5 -68t71 -106.5t27 -148.5q0 -99 -38 -174t-104.5 -118.5t-148.5 -65t-178 -21.5h-525q-21 0 -35 14t-14 33v621h-940 v-641q0 -19 -14 -33t-35 -14q-20 0 -34.5 14t-14.5 33zM1296 82h471q170 0 272.5 75.5t102.5 221.5q0 143 -101.5 216t-277.5 73h-467v-586z" />
<glyph unicode="&#x40b;" horiz-adv-x="1519" d="M-12 1352q0 18 12.5 30.5t30.5 12.5h1036q17 0 29 -13t12 -30q0 -19 -12 -31t-29 -12h-469v-596q45 98 129 157q103 66 246 66q179 0 280 -84q125 -104 125 -350v-479q0 -17 -13 -30t-32 -13q-18 0 -30.5 12.5t-12.5 30.5v466q0 214 -98 302q-77 71 -234 71 q-202 0 -296 -143q-64 -94 -64 -223v-469q0 -19 -14.5 -33t-34.5 -14q-21 0 -35 14t-14 33v1282h-469q-19 0 -31 12t-12 31z" />
<glyph unicode="&#x40c;" horiz-adv-x="1198" d="M160 29v1337q0 19 14.5 33t34.5 14q21 0 35 -14t14 -33v-625h176l598 650q18 22 43 22q20 0 32.5 -13.5t12.5 -33.5q0 -19 -18 -37l-584 -627l600 -641q15 -19 15 -36q0 -19 -13 -32t-33 -13q-26 0 -55 32l-594 641h-180v-624q0 -21 -14 -35t-35 -14q-20 0 -34.5 14.5 t-14.5 34.5zM465 1679q0 7 8 27l180 317q14 31 39 31q17 0 28 -11t11 -26q0 -13 -12 -32l-187 -308q-14 -26 -34 -26q-14 0 -23.5 8t-9.5 20z" />
<glyph unicode="&#x40e;" horiz-adv-x="1146" d="M23 1366q0 20 13.5 33.5t33.5 13.5q34 0 49 -35l473 -903l444 901q18 37 51 37q19 0 32.5 -12.5t13.5 -32.5q0 -17 -11 -35l-450 -915q-50 -104 -100.5 -178.5t-115.5 -136t-147 -92.5t-180 -31q-51 0 -51 43t49 43q75 0 136.5 21t111 64t88 94t80.5 124l-512 964 q-8 20 -8 33zM293 1882q0 13 11 23t26 10q11 0 21 -10.5t26 -37t26 -40.5q66 -90 168 -90q101 0 168 90q10 13 26.5 40t26.5 37.5t21 10.5q15 0 26 -10t11 -23q0 -31 -49 -92q-93 -123 -230 -123q-139 0 -229 123q-49 66 -49 92z" />
<glyph unicode="&#x40f;" horiz-adv-x="1429" d="M160 47v1319q0 19 14.5 33t34.5 14q21 0 35 -14t14 -33v-1278h913v1278q0 19 14.5 33t35.5 14t35 -14t14 -33v-1319q0 -19 -14 -33t-35 -14h-457v-446q0 -19 -14 -33.5t-35 -14.5t-35 14.5t-14 33.5v446h-457q-20 0 -34.5 14t-14.5 33z" />
<glyph unicode="&#x410;" horiz-adv-x="1263" d="M16 25q0 5 9 32l542 1307q20 49 66 49q47 0 65 -49l543 -1307q6 -15 6 -30q0 -22 -12.5 -34.5t-34.5 -12.5q-36 0 -51 40l-148 355h-739l-149 -355q-15 -40 -52 -40q-22 0 -33.5 12.5t-11.5 32.5zM289 455h686l-344 825z" />
<glyph unicode="&#x411;" horiz-adv-x="1310" d="M160 47v1301q0 19 14.5 33t34.5 14h876q19 0 31 -12t12 -31t-12 -31t-31 -12h-827v-559h471q96 0 176.5 -18.5t150 -59t109 -115.5t39.5 -178q0 -99 -38.5 -174t-105 -118.5t-148.5 -65t-177 -21.5h-526q-20 0 -34.5 14t-14.5 33zM258 82h471q170 0 273.5 76t103.5 221 q0 143 -102.5 216t-278.5 73h-467v-586z" />
<glyph unicode="&#x412;" horiz-adv-x="1310" d="M160 47v1301q0 19 14.5 33t34.5 14h457q84 0 158.5 -21.5t134.5 -63.5t95.5 -111.5t35.5 -158.5q0 -119 -51 -196t-138 -115v-4q145 -26 224 -121.5t79 -234.5q0 -94 -38 -166.5t-103 -116t-146 -65t-174 -21.5h-534q-20 0 -34.5 14t-14.5 33zM258 82h471q76 0 140 15 t119 48t86.5 92.5t31.5 141.5q0 123 -84.5 206t-241.5 83h-522v-586zM258 750h438q131 0 212 70t81 212q0 137 -96 209t-238 72h-397v-563z" />
<glyph unicode="&#x413;" horiz-adv-x="1083" d="M160 27v1321q0 19 14.5 33t34.5 14h795q17 0 28.5 -12t11.5 -31t-11.5 -31t-28.5 -12h-746v-1282q0 -19 -14 -33t-35 -14q-20 0 -34.5 14t-14.5 33z" />
<glyph unicode="&#x414;" horiz-adv-x="1431" d="M37 41q0 19 14.5 33t34.5 14h125q35 56 62.5 125.5t45 135.5t30.5 150t19.5 149.5t10 155.5t4 145.5t0.5 140.5v258q0 19 14 33t35 14h739q21 0 35.5 -14t14.5 -33v-1260h122q21 0 35.5 -14t14.5 -33v-481q0 -19 -14.5 -33t-35.5 -14q-20 0 -34.5 14t-14.5 33v440h-1159 v-440q0 -19 -14 -33t-35 -14q-20 0 -34.5 14t-14.5 33v481zM313 88h809v1219h-641v-217q0 -121 -1.5 -202t-11 -204.5t-26.5 -216t-49.5 -196t-79.5 -183.5z" />
<glyph unicode="&#x415;" horiz-adv-x="1206" d="M160 47v1301q0 19 14.5 33t34.5 14h891q17 0 29 -13t12 -30q0 -19 -12 -31t-29 -12h-842v-568h735q18 0 30.5 -12.5t12.5 -30.5q0 -19 -12 -32t-31 -13h-735v-567h842q17 0 29 -12t12 -31t-12 -31t-29 -12h-891q-20 0 -34.5 14t-14.5 33z" />
<glyph unicode="&#x416;" horiz-adv-x="1955" d="M55 25q0 17 15 36l600 641l-586 627q-16 19 -16 37q0 20 12 33.5t31 13.5q27 0 45 -22l598 -650h174v625q0 19 14.5 33t34.5 14q21 0 35 -14t14 -33v-625h176l598 650q18 22 43 22q20 0 32.5 -13.5t12.5 -33.5q0 -19 -18 -37l-584 -627l600 -641q15 -19 15 -36 q0 -19 -13 -32t-33 -13q-26 0 -55 32l-594 641h-180v-624q0 -21 -14 -35t-35 -14q-20 0 -34.5 14.5t-14.5 34.5v624h-178l-596 -641q-12 -12 -17.5 -17t-15.5 -10t-21 -5q-21 0 -33 13t-12 32z" />
<glyph unicode="&#x417;" horiz-adv-x="1028" d="M84 98q0 18 11.5 30.5t31.5 12.5q15 0 56.5 -20t70.5 -29q91 -31 201 -31q169 0 270.5 88t101.5 230q0 103 -53.5 174.5t-157.5 103.5q-70 23 -161 23h-181q-15 0 -26.5 12t-11.5 29q0 18 11 29.5t27 11.5h170q103 0 179 31q157 66 157 243q0 124 -86.5 207.5 t-228.5 83.5q-112 0 -199 -41q-27 -12 -51.5 -26.5t-37.5 -21.5t-23 -7q-20 0 -32.5 12.5t-12.5 30.5q0 23 20 39.5t61 36.5q129 63 279 63q180 0 291.5 -104.5t111.5 -261.5q0 -119 -61 -202t-176 -118q142 -37 213.5 -129.5t71.5 -224.5q0 -175 -127 -284t-334 -109 q-131 0 -238 28q-65 19 -101 42.5t-36 47.5z" />
<glyph unicode="&#x418;" horiz-adv-x="1478" d="M160 27v1339q0 19 14.5 33t34.5 14q21 0 35 -14t14 -33v-1106l963 989v117q0 19 14 33t35 14q20 0 34.5 -14t14.5 -33v-1339q0 -19 -14.5 -33t-34.5 -14q-21 0 -35 14t-14 33v1097l-963 -991v-106q0 -19 -14 -33t-35 -14q-20 0 -34.5 14t-14.5 33z" />
<glyph unicode="&#x419;" horiz-adv-x="1478" d="M160 27v1339q0 19 14.5 33t34.5 14q21 0 35 -14t14 -33v-1106l963 989v117q0 19 14 33t35 14q20 0 34.5 -14t14.5 -33v-1339q0 -19 -14.5 -33t-34.5 -14q-21 0 -35 14t-14 33v1097l-963 -991v-106q0 -19 -14 -33t-35 -14q-20 0 -34.5 14t-14.5 33zM475 1882q0 13 11 23 t26 10q11 0 21 -10.5t26.5 -37.5t26.5 -40q66 -90 168 -90q101 0 168 90q10 14 26 40.5t26 37t21 10.5q15 0 26 -10t11 -23q0 -31 -49 -92q-93 -123 -229 -123q-140 0 -230 123q-49 66 -49 92z" />
<glyph unicode="&#x41a;" horiz-adv-x="1187" d="M160 29v1337q0 19 14.5 33t34.5 14q21 0 35 -14t14 -33v-625h176l598 650q18 22 43 22q20 0 32.5 -13.5t12.5 -33.5q0 -19 -18 -37l-584 -627l600 -641q15 -19 15 -36q0 -19 -13 -32t-33 -13q-26 0 -55 32l-594 641h-180v-624q0 -21 -14 -35t-35 -14q-20 0 -34.5 14.5 t-14.5 34.5z" />
<glyph unicode="&#x41b;" horiz-adv-x="1384" d="M35 29q0 16 14.5 37.5t40.5 62t45 90.5q68 166 89.5 378t19.5 493v258q0 19 14 33t35 14h883q20 0 34.5 -14t14.5 -33v-1321q0 -19 -14.5 -33t-34.5 -14q-21 0 -35.5 14t-14.5 33v1280h-784v-217q0 -302 -26.5 -539t-102.5 -406q-48 -103 -73.5 -134t-53.5 -31 q-22 0 -36.5 14.5t-14.5 34.5z" />
<glyph unicode="&#x41c;" horiz-adv-x="1697" d="M160 27v1327q0 24 16.5 41.5t42.5 17.5q35 0 53 -33l576 -931l575 931q22 33 56 33q25 0 41 -17.5t16 -41.5v-1327q0 -19 -13 -33t-34 -14t-35 14t-14 33v1198l-543 -873q-19 -30 -49 -30t-49 30l-543 873v-1198q0 -19 -13 -33t-34 -14t-35 14t-14 33z" />
<glyph unicode="&#x41d;" horiz-adv-x="1456" d="M160 27v1339q0 19 14.5 33t34.5 14q21 0 35 -14t14 -33v-623h940v623q0 19 14 33t35 14t35 -14t14 -33v-1339q0 -19 -14.5 -33t-34.5 -14q-21 0 -35 14t-14 33v628h-940v-628q0 -19 -14 -33t-35 -14q-20 0 -34.5 14t-14.5 33z" />
<glyph unicode="&#x41e;" horiz-adv-x="1648" d="M104 694q0 145 57.5 278.5t154 230t230 153.5t279.5 57q116 0 226 -36.5t198.5 -103t155 -155t103 -198.5t36.5 -226t-36.5 -225t-103 -196.5t-155 -154t-198 -102.5t-226.5 -36q-146 0 -279.5 56.5t-230 152.5t-154 228t-57.5 277zM207 694q0 -126 48.5 -241t130.5 -199 t196.5 -134t240.5 -50q169 0 312 85t225 228.5t82 310.5q0 168 -82 312t-225 229.5t-312 85.5t-311 -85.5t-223.5 -229.5t-81.5 -312z" />
<glyph unicode="&#x41f;" horiz-adv-x="1429" d="M160 27v1321q0 19 14.5 33t34.5 14h1012q21 0 35 -14t14 -33v-1321q0 -19 -14 -33t-35 -14t-35.5 14t-14.5 33v1280h-913v-1280q0 -19 -14 -33t-35 -14q-20 0 -34.5 14t-14.5 33z" />
<glyph unicode="&#x420;" horiz-adv-x="1259" d="M160 27v1319q0 20 14.5 34.5t34.5 14.5h498q190 0 315 -95q162 -124 162 -350q0 -113 -46 -207t-128 -151q-118 -86 -334 -86h-418v-479q0 -19 -14 -33t-35 -14q-20 0 -34.5 14t-14.5 33zM258 592h401q181 0 279 65q67 47 106 123.5t39 169.5q0 192 -133 285 q-106 74 -260 74h-432v-717z" />
<glyph unicode="&#x421;" horiz-adv-x="1355" d="M104 698q0 190 97.5 355t263 262.5t356.5 97.5q201 0 357 -78q45 -21 66.5 -39.5t21.5 -42.5q0 -19 -13 -32t-32 -13q-13 0 -32.5 12t-54 32t-73.5 34q-111 39 -240 39q-123 0 -237 -51t-197 -135.5t-132.5 -200.5t-49.5 -240q0 -139 50 -258t134.5 -200t197 -126.5 t236.5 -45.5q128 0 240 38q41 15 76 35t54 31.5t32 11.5q19 0 32 -13t13 -32q0 -24 -21.5 -42.5t-66.5 -39.5q-154 -77 -359 -77q-145 0 -276 52t-229.5 144t-156 227.5t-57.5 294.5z" />
<glyph unicode="&#x422;" horiz-adv-x="1120" d="M0 1352q0 18 12.5 30.5t30.5 12.5h1034q18 0 30.5 -12.5t12.5 -30.5q0 -19 -12 -31t-31 -12h-467v-1282q0 -19 -14.5 -33t-34.5 -14q-21 0 -35 14t-14 33v1282h-469q-19 0 -31 12t-12 31z" />
<glyph unicode="&#x423;" horiz-adv-x="1146" d="M23 1366q0 20 13.5 33.5t33.5 13.5q34 0 49 -35l473 -903l444 901q18 37 51 37q19 0 32.5 -12.5t13.5 -32.5q0 -17 -11 -35l-450 -915q-51 -104 -101.5 -178.5t-115.5 -136t-146.5 -92.5t-179.5 -31q-51 0 -51 43t49 43q75 0 136.5 21t111 64t88 94t80.5 124l-512 964 q-8 20 -8 33z" />
<glyph unicode="&#x424;" horiz-adv-x="1531" d="M102 696q0 127 48.5 232t134.5 174q123 98 336 98h96v166q0 19 14.5 33t34.5 14q21 0 35 -14t14 -33v-166h98q211 0 334 -98q86 -69 134.5 -174t48.5 -232q0 -128 -48 -232.5t-135 -172.5q-123 -98 -334 -98h-98v-166q0 -19 -14 -33t-35 -14q-20 0 -34.5 14t-14.5 33v166 h-96q-210 0 -336 98q-86 69 -134.5 173.5t-48.5 231.5zM203 696q0 -109 40 -196t111 -140q101 -79 275 -79h88v831h-88q-173 0 -275 -80q-71 -53 -111 -140t-40 -196zM815 281h90q174 0 275 79q71 54 111 141t40 195t-40 195t-111 141q-102 80 -275 80h-90v-831z" />
<glyph unicode="&#x425;" horiz-adv-x="1243" d="M8 31q0 16 19 39l534 626l-532 627q-17 20 -17 39q0 20 16 35.5t38 15.5q27 0 49 -31l508 -608l507 608q22 31 50 31q21 0 38 -15t17 -36q0 -17 -18 -39l-531 -627l535 -626q16 -19 16 -39q0 -21 -16 -36t-37 -15q-27 0 -49 28l-510 613l-512 -613q-22 -28 -50 -28 q-21 0 -38 15t-17 36z" />
<glyph unicode="&#x426;" horiz-adv-x="1478" d="M160 47v1319q0 19 14.5 33t34.5 14q21 0 35 -14t14 -33v-1278h913v1278q0 19 14.5 33t35.5 14t35 -14t14 -33v-1278h123q21 0 35 -14t14 -33v-487q0 -19 -14 -33.5t-35 -14.5t-35.5 14.5t-14.5 33.5v446h-1134q-20 0 -34.5 14t-14.5 33z" />
<glyph unicode="&#x427;" horiz-adv-x="1259" d="M137 940v426q0 19 14 33t35 14t35.5 -14t14.5 -33v-424q0 -181 83.5 -264.5t255.5 -83.5q206 0 424 90v682q0 19 15 33t35 14q21 0 35 -14t14 -33v-1339q0 -19 -14 -33t-35 -14q-20 0 -35 14t-15 33v567q-221 -88 -430 -88q-432 0 -432 434z" />
<glyph unicode="&#x428;" horiz-adv-x="2285" d="M160 47v1319q0 19 14.5 33t34.5 14q21 0 35 -14t14 -33v-1278h836v1278q0 19 14 33t35 14t35 -14t14 -33v-1278h836v1278q0 19 14 33t35 14q20 0 34.5 -14t14.5 -33v-1319q0 -19 -14.5 -33t-34.5 -14h-1868q-20 0 -34.5 14t-14.5 33z" />
<glyph unicode="&#x429;" horiz-adv-x="2334" d="M160 47v1319q0 19 14.5 33t34.5 14q21 0 35 -14t14 -33v-1278h836v1278q0 19 14 33t35 14t35 -14t14 -33v-1278h836v1278q0 19 14 33t35 14q20 0 34.5 -14t14.5 -33v-1278h123q20 0 34.5 -14t14.5 -33v-487q0 -19 -14.5 -33.5t-34.5 -14.5q-21 0 -35 14.5t-14 33.5v446 h-1991q-20 0 -34.5 14t-14.5 33z" />
<glyph unicode="&#x42a;" horiz-adv-x="1701" d="M41 1352q0 19 12 31t31 12h516q21 0 35 -14t14 -33v-598h471q75 0 141 -10.5t128 -37.5t106.5 -68t71 -106.5t26.5 -148.5q0 -99 -38 -174t-104.5 -118.5t-148 -65t-176.5 -21.5h-526q-21 0 -35 14t-14 33v1262h-467q-19 0 -31 12t-12 31zM649 82h471q170 0 272.5 75.5 t102.5 221.5q0 143 -101.5 216t-277.5 73h-467v-586z" />
<glyph unicode="&#x42b;" horiz-adv-x="1730" d="M160 47v1319q0 19 14.5 33t34.5 14q21 0 35 -14t14 -33v-616h471q96 0 176.5 -18.5t150 -59t109 -115.5t39.5 -178q0 -99 -38.5 -174t-105 -118.5t-148.5 -65t-177 -21.5h-526q-20 0 -34.5 14t-14.5 33zM258 82h471q170 0 273.5 76t103.5 221q0 143 -102.5 216t-278.5 73 h-467v-586zM1470 27v1339q0 19 15 33t35 14q21 0 35 -14t14 -33v-1339q0 -19 -14 -33t-35 -14q-20 0 -35 14t-15 33z" />
<glyph unicode="&#x42c;" horiz-adv-x="1310" d="M160 47v1319q0 19 14.5 33t34.5 14q21 0 35 -14t14 -33v-616h471q96 0 176.5 -18.5t150 -59t109 -115.5t39.5 -178q0 -99 -38.5 -174t-105 -118.5t-148.5 -65t-177 -21.5h-526q-20 0 -34.5 14t-14.5 33zM258 82h471q170 0 273.5 76t103.5 221q0 143 -102.5 216t-278.5 73 h-467v-586z" />
<glyph unicode="&#x42d;" horiz-adv-x="1355" d="M86 139q0 19 12.5 32t32.5 13q12 0 31 -11.5t54.5 -31.5t76.5 -35q108 -38 237 -38q242 0 418 159q87 78 138 187.5t57 240.5h-840q-17 0 -29 12t-12 31q0 17 12 30t29 13h840q-6 114 -55 219.5t-130 186.5q-85 84 -195.5 131t-230.5 47q-124 0 -239 -39q-39 -14 -73 -34 t-53 -32t-32 -12q-19 0 -32 13t-13 32q0 25 21 43t65 39q160 78 356 78q143 0 272.5 -55t229.5 -154q102 -100 159.5 -231.5t57.5 -274.5q0 -163 -59.5 -298t-165.5 -232q-98 -91 -225.5 -139.5t-268.5 -48.5q-202 0 -360 77q-44 21 -65 39.5t-21 42.5z" />
<glyph unicode="&#x42e;" horiz-adv-x="2158" d="M160 27v1339q0 19 14.5 33t34.5 14q21 0 35 -14t14 -33v-623h360q12 182 110.5 336t259.5 244t349 90q116 0 226 -36.5t198.5 -103t155 -155t103 -198.5t36.5 -226t-36.5 -225t-103 -196.5t-155 -154t-198 -102.5t-226.5 -36q-142 0 -272.5 53.5t-226.5 144t-155 215 t-65 262.5h-360v-628q0 -19 -14 -33t-35 -14q-20 0 -34.5 14t-14.5 33zM719 694q0 -126 48 -241t130 -199t196.5 -134t241.5 -50q169 0 312 85t225 228.5t82 310.5q0 168 -82 312t-225 229.5t-312 85.5t-311.5 -85.5t-223.5 -229.5t-81 -312z" />
<glyph unicode="&#x42f;" horiz-adv-x="1304" d="M100 27q0 15 11 32l415 514q-87 5 -145.5 21.5t-108.5 52.5q-82 57 -126 144.5t-44 191.5q0 235 164 340q67 41 146.5 56.5t187.5 15.5h496q21 0 35 -14t14 -35v-1319q0 -19 -14 -33t-35 -14q-20 0 -34.5 14t-14.5 33v546h-398l-454 -571q-16 -22 -43 -22q-23 0 -37.5 14 t-14.5 33zM201 983q0 -90 38.5 -162.5t108.5 -115.5q79 -48 230 -48h469v654h-429q-94 0 -157.5 -11t-120.5 -45q-139 -80 -139 -272z" />
<glyph unicode="&#x430;" horiz-adv-x="962" d="M96 244q0 176 197 245q58 21 142 35t139.5 19t156.5 12v31q0 133 -57 202q-59 72 -193 72q-105 0 -202 -39q-22 -9 -45 -20.5t-35 -17t-21 -5.5q-13 0 -24 11.5t-11 25.5q0 20 22.5 35.5t65.5 34.5q112 51 256 51q177 0 261 -96q73 -89 73 -254v-563q0 -19 -13 -31 t-32 -12t-32 12t-13 31v26q-135 -69 -293 -69q-62 0 -120.5 15.5t-109 45.5t-81.5 83t-31 120zM180 250q0 -99 83.5 -149t197.5 -50q142 0 270 76v358q-6 0 -53.5 -2.5t-64.5 -4t-60.5 -5t-69 -7.5t-59.5 -11t-62 -15q-86 -27 -134 -72t-48 -118z" />
<glyph unicode="&#x431;" horiz-adv-x="1161" d="M109 571q0 166 55 301t168 220q62 45 139.5 74.5t170.5 57t155 56.5q80 37 125 106q18 25 39 25t33 -17.5t3 -37.5q-21 -47 -52.5 -75.5t-84.5 -55.5q-56 -27 -224.5 -80.5t-242.5 -106.5q-147 -110 -184 -319q159 155 405 155q84 0 160 -26t139.5 -77t101.5 -139.5 t38 -201.5q0 -199 -127 -324.5t-344 -125.5q-105 0 -188 34.5t-135.5 90.5t-87 134t-48.5 159.5t-14 172.5zM197 571q0 -81 11 -152.5t39 -140t71 -117.5t110.5 -78.5t153.5 -29.5q183 0 284 105.5t101 271.5q0 97 -33 172t-87.5 118.5t-118.5 65t-134 21.5 q-126 0 -221.5 -42t-173.5 -132q-2 -20 -2 -62z" />
<glyph unicode="&#x432;" horiz-adv-x="1026" d="M162 43v831q0 18 12.5 31t32.5 13h325q86 0 153 -23.5t110 -78t43 -134.5q0 -70 -34 -122t-93 -81q100 -18 153.5 -80t53.5 -151q0 -128 -91.5 -188t-238.5 -60h-381q-20 0 -32.5 12t-12.5 31zM250 68h323q116 0 186 45t70 141q0 75 -58.5 126.5t-162.5 51.5h-358v-364z M250 498h303q86 0 141.5 46t55.5 132q0 85 -65.5 129.5t-162.5 44.5h-272v-352z" />
<glyph unicode="&#x433;" horiz-adv-x="849" d="M162 23v851q0 19 13 31.5t32 12.5h590q16 0 27.5 -11t11.5 -28t-11.5 -28t-27.5 -11h-545v-817q0 -19 -13 -31t-32 -12t-32 12t-13 31z" />
<glyph unicode="&#x434;" horiz-adv-x="1230" d="M55 35q0 19 13 31t32 12h101q48 77 80.5 174.5t47.5 208.5t20.5 204t6.5 209q0 18 13 31t30 13h580q19 0 31 -12.5t12 -31.5v-796h113q19 0 31 -12t12 -31v-326q0 -18 -12.5 -30.5t-30.5 -12.5q-20 0 -32.5 12.5t-12.5 30.5v291h-947v-291q0 -18 -11.5 -30.5t-31.5 -12.5 q-19 0 -32 13t-13 30v326zM295 78h639v762h-490q-4 -238 -34.5 -428t-114.5 -334z" />
<glyph unicode="&#x435;" horiz-adv-x="1073" d="M98 471q0 197 119 328q121 137 334 137q194 0 315 -131q111 -120 111 -307q0 -24 -13.5 -41t-39.5 -17h-731q6 -152 86 -247q108 -136 301 -136q143 0 254 62q12 7 24.5 15.5t18.5 12t13 6.5t13 3q14 0 24.5 -12.5t10.5 -26.5q0 -28 -55 -60q-135 -77 -308 -77 q-229 0 -364 157q-113 132 -113 334zM193 510h696q-3 154 -88 242q-93 106 -250 106q-180 0 -275 -119q-76 -89 -83 -229z" />
<glyph unicode="&#x436;" horiz-adv-x="1435" d="M43 20q0 20 14 37l385 408l-368 393q-17 20 -17 35q0 18 11 30.5t30 12.5q22 0 39 -21l383 -415h154v393q0 19 13 31t32 12t31 -12t12 -31v-393h153l383 415q18 21 39 21q19 0 30 -12.5t11 -30.5q0 -16 -16 -35l-369 -393l385 -408q15 -19 15 -37q0 -17 -12 -28.5 t-29 -11.5q-24 0 -47 26l-387 416h-156v-399q0 -18 -12.5 -30.5t-30.5 -12.5q-19 0 -32 12t-13 31v399h-156l-387 -416q-23 -26 -47 -26q-17 0 -29 11.5t-12 28.5z" />
<glyph unicode="&#x437;" horiz-adv-x="802" d="M80 63q0 17 11 28t30 11q8 0 17.5 -3t26 -9.5t23.5 -9.5q86 -31 170 -31q118 0 190.5 56.5t72.5 144.5q0 130 -154 176q-44 12 -188 12q-43 0 -43 37q0 15 9.5 26t28.5 11q152 0 199 16q113 44 113 154q0 75 -61.5 128.5t-157.5 53.5q-83 0 -168 -39q-50 -26 -62 -26 q-17 0 -28 11t-11 26q0 27 62 57q84 43 209 43q135 0 218 -71.5t83 -176.5q0 -158 -164 -209q99 -26 150 -86.5t51 -148.5q0 -118 -95.5 -191t-249.5 -73q-135 0 -217 30q-65 20 -65 53z" />
<glyph unicode="&#x438;" horiz-adv-x="1179" d="M162 23v870q0 19 13 31t32 12t32 -12t13 -31v-719l676 664v55q0 19 13 31t32 12t32 -12t13 -31v-870q0 -19 -13 -31t-32 -12t-32 12t-13 31v718l-676 -663v-55q0 -19 -13 -31t-32 -12t-32 12t-13 31z" />
<glyph unicode="&#x439;" horiz-adv-x="1179" d="M162 23v870q0 19 13 31t32 12t32 -12t13 -31v-719l676 664v55q0 19 13 31t32 12t32 -12t13 -31v-870q0 -19 -13 -31t-32 -12t-32 12t-13 31v718l-676 -663v-55q0 -19 -13 -31t-32 -12t-32 12t-13 31zM309 1432q0 13 11 22.5t26 9.5q11 0 21 -10.5t26.5 -37.5t26.5 -40 q66 -90 168 -90q101 0 168 90q10 14 26 40.5t26 37t21 10.5q15 0 26 -9.5t11 -22.5q0 -32 -49 -93q-92 -122 -229 -122q-141 0 -230 122q-49 66 -49 93z" />
<glyph unicode="&#x43a;" horiz-adv-x="925" d="M162 23v870q0 19 13 31t32 12t32 -12t13 -31v-393h154l380 415q21 21 41 21q18 0 29.5 -12.5t11.5 -30.5q0 -16 -16 -35l-369 -393l383 -408q17 -17 17 -37q0 -17 -12 -28.5t-31 -11.5q-21 0 -47 26l-385 416h-156v-399q0 -19 -13 -31t-32 -12t-32 12t-13 31z" />
<glyph unicode="&#x43b;" horiz-adv-x="1058" d="M37 25q0 15 12.5 34t36 56t41.5 80q53 129 72.5 294.5t21.5 384.5q0 19 13 31.5t32 12.5h586q19 0 31 -12.5t12 -31.5v-851q0 -19 -12 -31t-31 -12t-32 12t-13 31v817h-496q-5 -228 -29 -407t-83 -306q-41 -91 -66 -119t-51 -28q-19 0 -32 13t-13 32z" />
<glyph unicode="&#x43c;" horiz-adv-x="1286" d="M162 23v864q0 22 15 35.5t38 13.5q28 0 45 -27l383 -628l383 628q17 27 45 27q23 0 38 -13.5t15 -35.5v-864q0 -19 -12.5 -31t-32.5 -12q-19 0 -31 12t-12 31v745q-4 -8 -172.5 -283t-175.5 -286q-17 -29 -43 -29t-47 29l-348 569v-745q0 -19 -12 -31t-31 -12 q-20 0 -32.5 12t-12.5 31z" />
<glyph unicode="&#x43d;" horiz-adv-x="1122" d="M162 23v870q0 19 13 31t32 12t32 -12t13 -31v-393h618v393q0 19 13 31t32 12t32.5 -12.5t13.5 -30.5v-870q0 -18 -13.5 -30.5t-32.5 -12.5t-32 12t-13 31v399h-618v-399q0 -19 -13 -31t-32 -12t-32 12t-13 31z" />
<glyph unicode="&#x43e;" horiz-adv-x="1181" d="M109 459q0 97 34.5 183.5t96.5 150.5q137 143 350 143q215 0 352 -143q62 -64 96.5 -150.5t34.5 -183.5q0 -202 -131 -336q-140 -143 -352 -143q-210 0 -350 143q-131 134 -131 336zM197 459q0 -164 102 -281q115 -125 291 -125q178 0 293 125q100 114 100 281 q0 164 -100 278q-115 125 -293 125q-176 0 -291 -125q-102 -117 -102 -278z" />
<glyph unicode="&#x43f;" horiz-adv-x="1093" d="M162 23v851q0 19 13 31.5t32 12.5h680q19 0 32 -12.5t13 -31.5v-851q0 -19 -13 -31t-32 -12t-32 12t-13 31v817h-590v-817q0 -19 -13 -31t-32 -12t-32 12t-13 31z" />
<glyph unicode="&#x440;" horiz-adv-x="1067" d="M162 -430v1288q0 53 53 62q98 16 211 16q240 0 385 -127q147 -131 147 -348q0 -214 -118 -342q-67 -70 -157.5 -104.5t-178.5 -34.5q-146 0 -252 53v-463q0 -19 -13 -31t-32 -12t-32 12t-13 31zM252 109q59 -30 113 -43t133 -13q69 0 141 27.5t127 85.5q102 102 102 295 q0 186 -114 291q-119 110 -320 110q-105 0 -182 -14v-739z" />
<glyph unicode="&#x441;" horiz-adv-x="964" d="M109 459q0 182 106 307q68 81 167.5 124.5t211.5 43.5q128 0 233 -51q28 -14 40 -26t12 -28q0 -14 -11 -25t-26 -11q-8 0 -14 2t-21.5 10t-28.5 14q-92 41 -184 41q-89 0 -168.5 -36.5t-136.5 -102.5q-90 -111 -90 -262q0 -182 108 -293q110 -113 289 -113q116 0 188 35 q15 6 28 13.5t19.5 10.5t14.5 3q15 0 26 -11.5t11 -25.5q0 -16 -13.5 -27t-46.5 -26q-89 -45 -229 -45q-224 0 -356 135q-129 132 -129 344z" />
<glyph unicode="&#x442;" horiz-adv-x="907" d="M14 879q0 17 11.5 28t27.5 11h799q16 0 27.5 -11t11.5 -28t-11.5 -28t-27.5 -11h-354v-817q0 -19 -13 -31t-32 -12t-31 12t-12 31v817h-357q-16 0 -27.5 11t-11.5 28z" />
<glyph unicode="&#x443;" horiz-adv-x="892" d="M10 889q0 20 15 33.5t34 13.5q34 0 47 -31l357 -842l330 836q15 37 45 37q21 0 35 -12.5t14 -32.5q0 -12 -15 -47l-356 -891q-83 -207 -185 -315.5t-247 -108.5q-21 0 -34 13t-13 32t13 32t34 13q60 0 109 22.5t89 68.5t71 102.5t65 138.5l-395 901q-13 32 -13 37z" />
<glyph unicode="&#x444;" horiz-adv-x="1464" d="M109 459q0 214 98 340q53 70 128 103.5t148 33.5q119 0 205 -53v325q0 19 12.5 31t32.5 12q19 0 31 -12t12 -31v-325q86 53 205 53q75 0 150.5 -33.5t128.5 -103.5q96 -128 96 -340q0 -217 -96 -342q-53 -70 -128.5 -103.5t-150.5 -33.5q-119 0 -205 53v-324 q0 -18 -12.5 -30.5t-30.5 -12.5q-20 0 -32.5 12.5t-12.5 30.5v324q-86 -53 -205 -53q-73 0 -148 33.5t-128 103.5q-98 128 -98 342zM199 459q0 -191 80 -297q43 -56 101 -82.5t114 -26.5q63 0 105.5 13t88.5 43v698q-45 30 -88 42.5t-106 12.5q-57 0 -115 -25.5t-100 -82.5 q-80 -103 -80 -295zM776 109q47 -30 90.5 -43t106.5 -13q56 0 114 26.5t101 82.5q80 106 80 297q0 192 -80 295q-42 57 -100 82.5t-115 25.5q-63 0 -106.5 -12.5t-90.5 -42.5v-698z" />
<glyph unicode="&#x445;" horiz-adv-x="888" d="M10 25q0 5 1.5 10t5.5 10.5t6 8t9 10.5t9 10l346 395l-334 379q-24 27 -24 45q0 19 13.5 31t33.5 12q28 0 47 -27l321 -377l322 375q22 29 47 29q20 0 32.5 -12t12.5 -31q0 -16 -22 -41l-336 -379l356 -403q23 -30 23 -45q0 -19 -13.5 -32t-34.5 -13q-29 0 -51 30 l-336 396l-338 -400q-26 -26 -49 -26q-20 0 -33.5 13t-13.5 32z" />
<glyph unicode="&#x446;" horiz-adv-x="1138" d="M162 41v852q0 19 13 31t32 12t32 -12t13 -31v-815h590v815q0 19 13 31t32 12t32 -12t13 -31v-815h110q19 0 31 -12t12 -31v-326q0 -18 -12.5 -30.5t-30.5 -12.5q-20 0 -32.5 12.5t-12.5 30.5v291h-794q-17 0 -29 12t-12 29z" />
<glyph unicode="&#x447;" horiz-adv-x="1017" d="M147 623v270q0 18 13.5 30.5t32.5 12.5t32 -12t13 -31v-270q0 -120 58.5 -176t178.5 -56q142 0 291 60v442q0 19 13 31t32 12t32 -12t13 -31v-870q0 -19 -13 -31t-32 -12t-32 12t-13 31v354q-138 -60 -299 -60q-162 0 -241 74.5t-79 231.5z" />
<glyph unicode="&#x448;" horiz-adv-x="1699" d="M162 41v852q0 19 13 31t32 12t32 -12t13 -31v-815h553v815q0 19 13 31t32 12t32 -12t13 -31v-815h553v815q0 19 13 31t32 12t31 -12t12 -31v-852q0 -17 -11 -29t-28 -12h-1294q-17 0 -29 12t-12 29z" />
<glyph unicode="&#x449;" horiz-adv-x="1744" d="M162 41v852q0 19 13 31t32 12t32 -12t13 -31v-815h553v815q0 19 13 31t32 12t32 -12t13 -31v-815h553v815q0 19 13 31t32 12t31 -12t12 -31v-815h113q19 0 31 -12t12 -31v-326q0 -18 -12.5 -30.5t-30.5 -12.5q-20 0 -32.5 12.5t-12.5 30.5v291h-1401q-17 0 -29 12t-12 29 z" />
<glyph unicode="&#x44a;" horiz-adv-x="1261" d="M20 879q0 17 11.5 28t27.5 11h383q19 0 32 -12.5t13 -31.5v-376h336q71 0 128.5 -13t104 -40.5t72 -76.5t25.5 -116q0 -68 -25 -117.5t-70.5 -78.5t-102.5 -42.5t-128 -13.5h-385q-21 0 -33 12t-12 33v795h-338q-16 0 -27.5 11t-11.5 28zM487 68h326q252 0 252 182 q0 180 -258 180h-320v-362z" />
<glyph unicode="&#x44b;" horiz-adv-x="1325" d="M162 45v848q0 19 13 31t32 12t32 -12t13 -31v-395h336q71 0 128.5 -13t104 -40.5t72 -76.5t25.5 -116q0 -68 -25 -117.5t-70 -78.5t-102 -42.5t-127 -13.5h-387q-20 0 -32.5 12.5t-12.5 32.5zM252 68h328q249 0 249 182q0 180 -258 180h-319v-362zM1073 23v870 q0 19 13 31t32 12t32 -12t13 -31v-870q0 -19 -13 -31t-32 -12t-32 12t-13 31z" />
<glyph unicode="&#x44c;" horiz-adv-x="1026" d="M162 45v848q0 19 13 31t32 12t32 -12t13 -31v-395h336q71 0 128.5 -13t104 -40.5t72 -76.5t25.5 -116q0 -68 -25 -117.5t-70 -78.5t-102 -42.5t-127 -13.5h-387q-20 0 -32.5 12.5t-12.5 32.5zM252 68h328q249 0 249 182q0 180 -258 180h-319v-362z" />
<glyph unicode="&#x44d;" horiz-adv-x="964" d="M82 78q0 14 11 25.5t26 11.5q8 0 14 -3t19.5 -10.5t29.5 -13.5q68 -35 187 -35q181 0 288 113q99 99 105 262h-565q-12 0 -21.5 9t-9.5 22q0 12 9.5 21t21.5 9h563q-3 131 -84 232q-55 66 -135.5 102.5t-169.5 36.5q-105 0 -185 -41q-15 -6 -28.5 -13.5t-20 -10 t-14.5 -2.5q-14 0 -25.5 11.5t-11.5 24.5q0 17 11.5 28.5t39.5 25.5q105 51 234 51q112 0 211.5 -43.5t167.5 -124.5q106 -125 106 -307q0 -215 -129 -344q-132 -135 -356 -135q-141 0 -230 45q-32 15 -45.5 26t-13.5 27z" />
<glyph unicode="&#x44e;" horiz-adv-x="1640" d="M162 23v870q0 19 13 31t32 12t32 -12t13 -31v-393h319q12 172 127 293q137 143 351 143q105 0 196 -37.5t156 -105.5q129 -132 129 -334q0 -204 -129 -336q-66 -67 -157 -105t-195 -38t-194.5 38t-156.5 105q-118 124 -127 299h-319v-399q0 -19 -13 -31t-32 -12t-32 12 t-13 31zM655 459q0 -169 103 -281q112 -125 291 -125q178 0 290 125q103 112 103 281q0 166 -103 278q-112 125 -290 125q-179 0 -291 -125q-103 -112 -103 -278z" />
<glyph unicode="&#x44f;" horiz-adv-x="972" d="M106 643q0 62 18 110t48.5 79t73.5 50.5t89.5 27.5t100.5 8h330q19 0 31 -12.5t12 -31.5v-854q0 -16 -12.5 -28t-30.5 -12t-30.5 12t-12.5 28v345h-268q-87 -121 -267 -365q-16 -20 -36 -20q-41 0 -41 32q0 18 12 33l235 324q-113 17 -182.5 83t-69.5 191zM195 643 q0 -205 260 -205h268v406h-283q-245 0 -245 -201z" />
<glyph unicode="&#x451;" horiz-adv-x="1073" d="M98 471q0 197 119 328q121 137 334 137q194 0 315 -131q111 -120 111 -307q0 -24 -13.5 -41t-39.5 -17h-731q6 -152 86 -247q108 -136 301 -136q143 0 254 62q12 7 24.5 15.5t18.5 12t13 6.5t13 3q14 0 24.5 -12.5t10.5 -26.5q0 -28 -55 -60q-135 -77 -308 -77 q-229 0 -364 157q-113 132 -113 334zM193 510h696q-3 154 -88 242q-93 106 -250 106q-180 0 -275 -119q-76 -89 -83 -229zM305 1374q0 24 16.5 40t40.5 16q23 0 40.5 -16.5t17.5 -39.5q0 -24 -17 -40.5t-41 -16.5q-25 0 -41 16t-16 41zM645 1374q0 24 16.5 40t40.5 16 q23 0 39.5 -16.5t16.5 -39.5q0 -24 -16 -40.5t-40 -16.5q-25 0 -41 16t-16 41z" />
<glyph unicode="&#x452;" horiz-adv-x="1110" d="M20 1192q0 14 10 24.5t25 10.5h101v141q0 19 13 31t32 12t32 -12t13 -31v-141h332q13 0 23.5 -10.5t10.5 -24.5q0 -15 -10 -26t-24 -11h-332v-434q44 104 135 159.5t213 55.5q169 0 264 -80q111 -99 111 -317v-422q0 -175 -54 -289q-29 -57 -79 -102t-111 -45 q-51 0 -51 38q0 13 13 22t32 16.5t47.5 30t52.5 56.5q62 89 62 279v393q0 190 -88 270q-74 68 -213 68q-188 0 -277 -162q-57 -108 -57 -231v-438q0 -17 -13 -30t-32 -13t-32 13t-13 30v1132h-101q-15 0 -25 11t-10 26z" />
<glyph unicode="&#x453;" horiz-adv-x="849" d="M162 23v851q0 19 13 31.5t32 12.5h590q16 0 27.5 -11t11.5 -28t-11.5 -28t-27.5 -11h-545v-817q0 -19 -13 -31t-32 -12t-32 12t-13 31zM348 1198q0 7 8 27l181 317q14 31 38 31q17 0 28 -11t11 -26q0 -14 -12 -33l-186 -307q-15 -27 -35 -27q-14 0 -23.5 8.5t-9.5 20.5z " />
<glyph unicode="&#x454;" horiz-adv-x="964" d="M109 459q0 182 106 307q68 81 167.5 124.5t211.5 43.5q128 0 233 -51q28 -14 40 -26t12 -28q0 -14 -11 -25t-26 -11q-8 0 -14 2t-21.5 10t-28.5 14q-92 41 -184 41q-89 0 -168.5 -36.5t-136.5 -102.5q-81 -101 -84 -232h565q12 0 21.5 -9t9.5 -21q0 -13 -9.5 -22 t-21.5 -9h-567q6 -161 104 -262q110 -113 289 -113q116 0 188 35q15 6 28 13.5t19.5 10.5t14.5 3q15 0 26 -11.5t11 -25.5q0 -16 -13.5 -27t-46.5 -26q-89 -45 -229 -45q-224 0 -356 135q-129 132 -129 344z" />
<glyph unicode="&#x455;" horiz-adv-x="813" d="M82 111q0 14 11 26.5t26 12.5q8 0 16.5 -3.5t14 -7t17.5 -13t21 -15.5q89 -58 224 -58q108 0 167.5 45.5t59.5 132.5q0 65 -37.5 101.5t-114.5 70.5q-26 13 -111 43t-124 48q-152 69 -152 208q0 111 84.5 172.5t239.5 61.5q125 0 207 -33q76 -28 76 -59q0 -15 -11 -27 t-26 -12q-16 0 -76 24q-78 31 -164 31q-117 0 -177 -41t-60 -117q0 -56 30.5 -89.5t89.5 -59.5q35 -15 120.5 -45.5t115.5 -44.5q89 -41 136.5 -91.5t47.5 -133.5q0 -123 -85.5 -190.5t-233.5 -67.5q-159 0 -267 61q-26 13 -45.5 32.5t-19.5 37.5z" />
<glyph unicode="&#x456;" horiz-adv-x="401" d="M141 1374q0 23 16.5 39.5t41.5 16.5q23 0 39 -16.5t16 -39.5q0 -25 -16 -41t-39 -16q-25 0 -41.5 16t-16.5 41zM156 23v870q0 19 13 31t32 12t32 -12t13 -31v-870q0 -19 -13 -31t-32 -12t-32 12t-13 31z" />
<glyph unicode="&#x457;" horiz-adv-x="401" d="M-23 1374q0 23 16.5 39.5t41.5 16.5q23 0 40 -16.5t17 -39.5q0 -24 -16.5 -40.5t-40.5 -16.5q-25 0 -41.5 16t-16.5 41zM156 23v870q0 19 13 31t32 12t32 -12t13 -31v-870q0 -19 -13 -31t-32 -12t-32 12t-13 31zM317 1374q0 23 16.5 39.5t41.5 16.5q23 0 39 -16.5 t16 -39.5q0 -25 -16 -41t-39 -16q-25 0 -41.5 16t-16.5 41z" />
<glyph unicode="&#x458;" horiz-adv-x="401" d="M2 -428q0 12 9 21t22.5 14.5t34 22t38.5 40.5q50 68 50 271v952q0 19 13 31t32 12t32 -12t13 -31v-997q0 -192 -70 -287q-23 -34 -60 -56t-69 -22q-20 0 -32.5 10.5t-12.5 30.5zM141 1374q0 23 16.5 39.5t41.5 16.5q23 0 39 -16.5t16 -39.5q0 -25 -16 -41t-39 -16 q-25 0 -41.5 16t-16.5 41z" />
<glyph unicode="&#x459;" horiz-adv-x="1681" d="M37 25q0 15 12.5 34t36 56t41.5 80q53 129 72.5 294.5t21.5 384.5q0 19 13 31.5t32 12.5h598q19 0 31 -12.5t12 -31.5v-376h338q71 0 128 -13t103 -40.5t71.5 -76.5t25.5 -116q0 -68 -24.5 -117.5t-69.5 -78.5t-102 -42.5t-128 -13.5h-385q-21 0 -33 12t-12 33v795h-508 q-5 -228 -29 -407t-83 -306q-41 -91 -66 -119t-51 -28q-19 0 -32 13t-13 32zM907 68h328q250 0 250 182q0 180 -258 180h-320v-362z" />
<glyph unicode="&#x45a;" horiz-adv-x="1734" d="M162 23v870q0 19 13 31t32 12t32 -12t13 -31v-395h618v395q0 19 13 31t32 12t32.5 -12.5t13.5 -30.5v-395h335q71 0 128 -13t103 -40.5t71.5 -76.5t25.5 -116q0 -68 -24.5 -117.5t-69.5 -78.5t-102 -42.5t-128 -13.5h-385q-21 0 -33 12t-12 33v385h-618v-407 q0 -19 -13 -31t-32 -12t-32 12t-13 31zM961 68h325q250 0 250 182q0 180 -258 180h-317v-362z" />
<glyph unicode="&#x45b;" horiz-adv-x="1112" d="M23 1192q0 14 9.5 24.5t24.5 10.5h101v141q0 19 13 31t32 12t32 -12t13 -31v-141h332q13 0 23.5 -10.5t10.5 -24.5q0 -15 -10 -26t-24 -11h-332v-434q44 104 135 159.5t213 55.5q169 0 264 -80q111 -99 111 -317v-516q0 -17 -13 -30t-32 -13q-18 0 -30.5 12.5t-12.5 30.5 v493q0 190 -88 270q-74 68 -213 68q-188 0 -277 -162q-57 -108 -57 -231v-438q0 -17 -13 -30t-32 -13t-32 13t-13 30v1132h-101q-15 0 -24.5 11t-9.5 26z" />
<glyph unicode="&#x45c;" horiz-adv-x="942" d="M162 23v870q0 19 13 31t32 12t32 -12t13 -31v-393h154l380 415q21 21 41 21q18 0 29.5 -12.5t11.5 -30.5q0 -16 -16 -35l-369 -393l383 -408q17 -17 17 -37q0 -17 -12 -28.5t-31 -11.5q-21 0 -47 26l-385 416h-156v-399q0 -19 -13 -31t-32 -12t-32 12t-13 31zM352 1198 q0 7 8 27l181 317q14 31 39 31q17 0 27.5 -11t10.5 -26q0 -14 -12 -33l-186 -307q-15 -27 -35 -27q-14 0 -23.5 8.5t-9.5 20.5z" />
<glyph unicode="&#x45e;" horiz-adv-x="892" d="M10 889q0 20 15 33.5t34 13.5q34 0 47 -31l357 -842l330 836q15 37 45 37q21 0 35 -12.5t14 -32.5q0 -12 -15 -47l-356 -891q-83 -207 -185 -315.5t-247 -108.5q-21 0 -34 13t-13 32t13 32t34 13q60 0 109 22.5t89 68.5t71 102.5t65 138.5l-395 901q-13 32 -13 37z M166 1432q0 13 11 22.5t26 9.5q11 0 21 -10.5t26 -37t26 -40.5q66 -90 168 -90q101 0 168 90q10 13 26.5 40t26.5 37.5t21 10.5q15 0 26 -9.5t11 -22.5q0 -32 -49 -93q-92 -122 -230 -122q-140 0 -229 122q-49 66 -49 93z" />
<glyph unicode="&#x45f;" horiz-adv-x="1093" d="M162 41v852q0 17 13 30t32 13q18 0 30.5 -12.5t12.5 -30.5v-815h592v815q0 17 13 30t32 13q17 0 30 -13t13 -30v-852q0 -17 -12 -29t-29 -12h-299v-289q0 -19 -12 -31t-31 -12q-20 0 -32.5 12t-12.5 31v289h-299q-17 0 -29 12t-12 29z" />
<glyph unicode="&#x490;" horiz-adv-x="1083" d="M160 27v1321q0 19 14.5 33t34.5 14h747v334q0 18 12.5 30.5t30.5 12.5q20 0 32.5 -12.5t12.5 -30.5v-379q0 -18 -11 -29.5t-29 -11.5h-746v-1282q0 -19 -14 -33t-35 -14q-20 0 -34.5 14t-14.5 33z" />
<glyph unicode="&#x491;" horiz-adv-x="849" d="M162 23v851q0 19 13 31.5t32 12.5h543v335q0 17 12 29t31 12q17 0 30 -12t13 -29v-372q0 -17 -13 -29t-30 -12h-541v-817q0 -19 -13 -31t-32 -12t-32 12t-13 31z" />
<glyph unicode="&#x2000;" horiz-adv-x="1027" />
<glyph unicode="&#x2001;" horiz-adv-x="2054" />
<glyph unicode="&#x2002;" horiz-adv-x="1027" />
<glyph unicode="&#x2003;" horiz-adv-x="2054" />
<glyph unicode="&#x2004;" horiz-adv-x="684" />
<glyph unicode="&#x2005;" horiz-adv-x="513" />
<glyph unicode="&#x2006;" horiz-adv-x="342" />
<glyph unicode="&#x2007;" horiz-adv-x="342" />
<glyph unicode="&#x2008;" horiz-adv-x="256" />
<glyph unicode="&#x2009;" horiz-adv-x="410" />
<glyph unicode="&#x200a;" horiz-adv-x="114" />
<glyph unicode="&#x2010;" horiz-adv-x="1001" d="M174 602q0 19 12 31t29 12h571q17 0 29 -12t12 -31q0 -17 -12 -29t-29 -12h-571q-17 0 -29 12t-12 29z" />
<glyph unicode="&#x2011;" horiz-adv-x="1001" d="M174 602q0 19 12 31t29 12h571q17 0 29 -12t12 -31q0 -17 -12 -29t-29 -12h-571q-17 0 -29 12t-12 29z" />
<glyph unicode="&#x2012;" horiz-adv-x="1001" d="M174 602q0 19 12 31t29 12h571q17 0 29 -12t12 -31q0 -17 -12 -29t-29 -12h-571q-17 0 -29 12t-12 29z" />
<glyph unicode="&#x2013;" horiz-adv-x="1413" d="M174 516q0 17 12 30t29 13h983q17 0 29 -13t12 -30q0 -19 -12 -31t-29 -12h-983q-17 0 -29 12t-12 31z" />
<glyph unicode="&#x2014;" horiz-adv-x="2478" d="M174 516q0 17 12 30t29 13h2048q17 0 29 -13t12 -30q0 -19 -12 -31t-29 -12h-2048q-17 0 -29 12t-12 31z" />
<glyph unicode="&#x2018;" horiz-adv-x="356" d="M111 1262q0 60 39.5 105.5t72.5 45.5q21 0 21 -18q0 -11 -22.5 -34t-22.5 -48q0 -17 23.5 -37t23.5 -49q0 -25 -16.5 -41.5t-45.5 -16.5q-35 0 -54 25t-19 68z" />
<glyph unicode="&#x2019;" horiz-adv-x="356" d="M111 1356q0 25 16 42t45 17q36 0 55 -25t19 -67q0 -60 -40 -107t-73 -47q-7 0 -12.5 5.5t-5.5 13.5q0 13 21.5 36t21.5 46q0 18 -23.5 38.5t-23.5 47.5z" />
<glyph unicode="&#x201a;" horiz-adv-x="321" d="M102 39q0 25 16.5 42t45.5 17q36 0 55 -25t19 -67q0 -62 -40 -107.5t-73 -45.5q-8 0 -13.5 5.5t-5.5 12.5q0 13 22 36t22 46q0 17 -24 38t-24 48z" />
<glyph unicode="&#x201c;" horiz-adv-x="600" d="M111 1262q0 60 39.5 105.5t72.5 45.5q21 0 21 -18q0 -11 -22.5 -34t-22.5 -48q0 -17 23.5 -37t23.5 -49q0 -25 -16.5 -41.5t-45.5 -16.5q-35 0 -54 25t-19 68zM352 1262q0 60 40.5 105.5t74.5 45.5q18 0 18 -18q0 -11 -21.5 -34t-21.5 -48q0 -17 23.5 -37t23.5 -49 q0 -25 -16.5 -41.5t-46.5 -16.5q-35 0 -54.5 25t-19.5 68z" />
<glyph unicode="&#x201d;" horiz-adv-x="600" d="M111 1356q0 25 16 42t45 17q36 0 55 -25t19 -67q0 -60 -40 -107t-73 -47q-7 0 -12.5 5.5t-5.5 13.5q0 13 21.5 36t21.5 46q0 18 -23.5 38.5t-23.5 47.5zM352 1356q0 24 17 41.5t47 17.5q35 0 54 -25t19 -67q0 -61 -40 -107.5t-74 -46.5q-7 0 -13 5.5t-6 13.5 q0 13 21.5 36t21.5 46q0 18 -23.5 38.5t-23.5 47.5z" />
<glyph unicode="&#x201e;" horiz-adv-x="565" d="M102 39q0 25 16.5 42t45.5 17q36 0 55 -25t19 -67q0 -62 -40 -107.5t-73 -45.5q-8 0 -13.5 5.5t-5.5 12.5q0 13 22 36t22 46q0 17 -24 38t-24 48zM344 39q0 25 17 42t47 17q35 0 54 -25t19 -67q0 -62 -40 -107.5t-74 -45.5q-8 0 -13.5 5.5t-5.5 12.5q0 13 21.5 36 t21.5 46q0 17 -23.5 38t-23.5 48z" />
<glyph unicode="&#x2020;" horiz-adv-x="1005" d="M53 805q0 19 13.5 32t33.5 13q62 0 371 -16q-18 502 -18 532q0 21 14 35t35 14t35 -14t14 -35q0 -2 -19 -532q309 16 371 16q20 0 33.5 -13t13.5 -32q0 -20 -13.5 -34.5t-33.5 -14.5q-18 0 -371 16q19 -1003 19 -1186q0 -22 -13.5 -36.5t-35.5 -14.5t-35.5 14.5 t-13.5 36.5q0 236 18 1186q-353 -16 -371 -16q-20 0 -33.5 14.5t-13.5 34.5z" />
<glyph unicode="&#x2021;" horiz-adv-x="1003" d="M53 145q0 20 13.5 34t33.5 14q6 0 28 -1t119 -5.5t224 -10.5l-14 299l14 297q-353 -16 -371 -16q-20 0 -33.5 14.5t-13.5 34.5q0 19 13.5 32t33.5 13q62 0 371 -16q-18 502 -18 532q0 21 14 35t35 14t35 -14t14 -35q0 -2 -19 -532q309 16 371 16q20 0 33.5 -13t13.5 -32 q0 -20 -13.5 -34.5t-33.5 -14.5q-18 0 -371 16l15 -297l-15 -299q84 4 155 7t106 5t61.5 3t35.5 1.5t13 0.5q20 0 33.5 -14t13.5 -34t-13.5 -33.5t-33.5 -13.5q-6 0 -28 1t-119 5.5t-224 10.5q19 -527 19 -531q0 -21 -14 -35t-35 -14t-35 14t-14 35q0 32 18 531 q-84 -4 -155 -7t-106 -5t-61.5 -3t-35.5 -1.5t-13 -0.5q-20 0 -33.5 13.5t-13.5 33.5z" />
<glyph unicode="&#x2022;" horiz-adv-x="1044" d="M109 698q0 170 121.5 292t291.5 122t292 -122t122 -292t-122 -291.5t-292 -121.5t-291.5 121.5t-121.5 291.5z" />
<glyph unicode="&#x2026;" horiz-adv-x="1155" d="M102 43q0 25 18 41t44 16q25 0 41 -16t16 -41q0 -26 -16 -43.5t-41 -17.5q-26 0 -44 17.5t-18 43.5zM526 43q0 25 18 41t44 16q25 0 42 -16t17 -41q0 -26 -17 -43.5t-42 -17.5q-26 0 -44 17.5t-18 43.5zM952 43q0 25 17 41t43 16t42.5 -16t16.5 -41q0 -26 -16.5 -43.5 t-42.5 -17.5t-43 17.5t-17 43.5z" />
<glyph unicode="&#x202f;" horiz-adv-x="410" />
<glyph unicode="&#x2030;" horiz-adv-x="2019" d="M51 1098q0 129 92.5 221t221.5 92q128 0 220.5 -92t92.5 -221t-92.5 -221.5t-220.5 -92.5q-129 0 -221.5 92t-92.5 222zM109 1098q0 -107 75 -182.5t181 -75.5t181 76t75 182t-75 182t-181 76t-181 -76t-75 -182zM176 12q0 12 8 23l871 1356q15 20 30 20q12 0 21.5 -9 t9.5 -22q0 -11 -8 -22l-870 -1358q-15 -20 -31 -20q-13 0 -22 9t-9 23zM614 293q0 129 92.5 221t221.5 92q128 0 220.5 -92t92.5 -221t-92.5 -221t-220.5 -92q-129 0 -221.5 91.5t-92.5 221.5zM670 293q0 -108 76 -183t182 -75t181 75.5t75 182.5q0 106 -75 181t-181 75 t-182 -75t-76 -181zM1341 293q0 129 92.5 221t221.5 92q128 0 220.5 -92t92.5 -221t-92.5 -221t-220.5 -92q-129 0 -221.5 91.5t-92.5 221.5zM1397 293q0 -108 76 -183t182 -75t181 75.5t75 182.5q0 106 -75 181t-181 75t-182 -75t-76 -181z" />
<glyph unicode="&#x2039;" horiz-adv-x="663" d="M78 461q0 12 14 31l422 434q11 14 31 14q18 0 29.5 -11.5t11.5 -27.5q0 -18 -13 -31l-395 -409l395 -410q13 -13 13 -31q0 -17 -11 -27.5t-30 -10.5q-20 0 -31 14l-422 434q-14 19 -14 31z" />
<glyph unicode="&#x203a;" horiz-adv-x="663" d="M78 20q0 17 14 31l395 410l-395 409q-14 14 -14 31q0 15 12.5 27t30.5 12q20 0 31 -14l421 -434q13 -17 13 -31t-13 -31l-421 -434q-11 -14 -31 -14q-19 0 -31 10.5t-12 27.5z" />
<glyph unicode="&#x2044;" horiz-adv-x="724" d="M-31 20q0 17 11 35l682 1325q14 33 45 33q19 0 32 -12t13 -31q0 -6 -11 -33l-682 -1327q-15 -30 -47 -30q-18 0 -30.5 11.5t-12.5 28.5z" />
<glyph unicode="&#x205f;" horiz-adv-x="513" />
<glyph unicode="&#x20ac;" d="M-18 561q0 12 8.5 20.5t19.5 8.5h101q-7 61 -7 108q0 44 7 105h-101q-11 0 -19.5 8t-8.5 20t8.5 21.5t19.5 9.5h113q57 238 252 394.5t434 156.5q192 0 348 -78q44 -21 65 -39t21 -41q0 -20 -13 -33.5t-32 -13.5q-12 0 -30.5 12t-52 32t-71.5 34q-111 39 -235 39 q-200 0 -365 -131.5t-219 -331.5h807q12 0 20.5 -9.5t8.5 -21.5t-8.5 -20t-20.5 -8h-819q-8 -47 -8 -105q0 -61 8 -108h700q12 0 20.5 -8.5t8.5 -20.5t-8.5 -20.5t-20.5 -8.5h-690q51 -212 216 -338t372 -126q136 0 233 38q39 15 74.5 35t55 31.5t32.5 11.5q19 0 30 -12.5 t11 -32.5q0 -24 -21 -42.5t-65 -39.5q-154 -77 -352 -77q-164 0 -307 66.5t-244.5 192.5t-136.5 293h-111q-11 0 -19.5 8.5t-8.5 20.5z" />
<glyph unicode="&#x2122;" horiz-adv-x="1542" d="M51 1432q0 12 9 20t20 8h528q11 0 20 -8t9 -20t-9 -19.5t-20 -7.5h-233v-657q0 -12 -9.5 -21.5t-21.5 -9.5q-13 0 -22 9.5t-9 21.5v657h-233q-11 0 -20 7.5t-9 19.5zM717 748v688q0 14 9 22t24 8q21 0 36 -24l291 -477l293 477q15 24 37 24q15 0 24 -8t9 -22v-688 q0 -12 -9 -21.5t-22 -9.5q-12 0 -21.5 9.5t-9.5 21.5v595l-270 -442q-13 -20 -31 -20q-17 0 -30 20l-269 442v-595q0 -12 -9 -21.5t-21 -9.5q-13 0 -22 9.5t-9 21.5z" />
<glyph unicode="&#x25fc;" horiz-adv-x="931" d="M0 0v932h932v-932h-932z" />
</font>
</defs>
</svg>
